<svg width="605" height="451" viewBox="0 0 605 451" fill="none" xmlns="http://www.w3.org/2000/svg">
<path d="M354.957 38.1566V155.807C355.073 157.401 354.557 158.977 353.521 160.194C352.486 161.411 351.013 162.173 349.422 162.314H173.05C171.461 162.169 169.993 161.405 168.961 160.188C167.929 158.972 167.416 157.398 167.532 155.807V38.1566C167.416 36.5672 167.93 34.9961 168.962 33.782C169.994 32.568 171.462 31.8083 173.05 31.6667H349.422C351.012 31.804 352.484 32.5618 353.52 33.7764C354.556 34.9909 355.072 36.5645 354.957 38.1566Z" fill="#37474F"/>
<path d="M354.957 38.1566V45.0976H167.549V38.1566C167.433 36.5672 167.947 34.9961 168.979 33.782C170.012 32.568 171.48 31.8083 173.067 31.6667H349.422C351.012 31.804 352.484 32.5618 353.52 33.7764C354.556 34.9909 355.072 36.5645 354.957 38.1566Z" fill="#2C2A6B"/>
<path d="M201.508 38.3475C201.508 38.9756 201.322 39.5895 200.973 40.1117C200.624 40.6339 200.128 41.041 199.548 41.2813C198.967 41.5217 198.329 41.5845 197.713 41.462C197.097 41.3395 196.531 41.0371 196.087 40.5929C195.643 40.1488 195.34 39.583 195.218 38.967C195.095 38.351 195.158 37.7125 195.399 37.1323C195.639 36.552 196.046 36.0561 196.568 35.7072C197.09 35.3582 197.704 35.172 198.332 35.172C199.175 35.172 199.982 35.5065 200.578 36.1021C201.173 36.6976 201.508 37.5053 201.508 38.3475Z" fill="#FFB700"/>
<path d="M191.322 38.3475C191.326 38.9797 191.141 39.5987 190.792 40.1261C190.444 40.6534 189.946 41.0654 189.363 41.3097C188.78 41.554 188.138 41.6197 187.517 41.4985C186.897 41.3773 186.326 41.0746 185.878 40.6287C185.429 40.1829 185.124 39.614 184.999 38.9942C184.874 38.3744 184.937 37.7315 185.178 37.1471C185.419 36.5626 185.828 36.0629 186.354 35.7113C186.879 35.3597 187.497 35.172 188.129 35.172C188.973 35.172 189.783 35.506 190.381 36.101C190.979 36.696 191.318 37.5037 191.322 38.3475Z" fill="#9364ED"/>
<path d="M181.119 38.3475C181.119 38.9756 180.932 39.5895 180.583 40.1117C180.235 40.6339 179.739 41.041 179.158 41.2813C178.578 41.5217 177.94 41.5845 177.324 41.462C176.708 41.3395 176.142 41.0371 175.698 40.5929C175.254 40.1488 174.951 39.583 174.829 38.967C174.706 38.351 174.769 37.7125 175.009 37.1323C175.25 36.552 175.657 36.0561 176.179 35.7072C176.701 35.3582 177.315 35.172 177.943 35.172C178.785 35.172 179.593 35.5065 180.189 36.1021C180.784 36.6976 181.119 37.5053 181.119 38.3475Z" fill="#07CBF5"/>
<path d="M337.552 83.8131H184.989V91.7432H337.552V83.8131Z" fill="#2C2A6B"/>
<path d="M337.552 67.0677H184.989V74.9979H337.552V67.0677Z" fill="#2C2A6B"/>
<path d="M337.552 132.52H184.989V140.45H337.552V132.52Z" fill="#2C2A6B"/>
<path d="M337.552 100.055H184.989V107.985H337.552V100.055Z" fill="#2C2A6B"/>
<path d="M337.552 116.295H184.989V124.226H337.552V116.295Z" fill="#2C2A6B"/>
<path d="M356.414 0H286.935C285.075 0 283.568 1.50719 283.568 3.3664V84.3509C283.568 86.2102 285.075 87.7173 286.935 87.7173H356.414C358.274 87.7173 359.781 86.2102 359.781 84.3509V3.3664C359.781 1.50719 358.274 0 356.414 0Z" fill="#37474F"/>
<path d="M326.186 15.6173H297.242V49.6978H326.186V15.6173Z" fill="#FFB700"/>
<path d="M346.107 40.0499H314.057V72.1002H346.107V40.0499Z" fill="#9364ED"/>
<path d="M322.681 46.486L316.573 46.8851L321.328 50.5465C321.771 50.4891 322.189 50.308 322.533 50.024C322.878 49.7399 323.136 49.3645 323.277 48.9406C323.419 48.5168 323.438 48.0617 323.332 47.6275C323.227 47.1934 323.001 46.7977 322.681 46.486Z" fill="white"/>
<path d="M488.52 379.76L490.498 411.098L518.071 414.17L526.21 397.789L524.422 374.12L488.52 379.76Z" fill="#FD8753"/>
<path d="M541.931 367.717L565.357 388.627L587.117 371.431L581.391 354.061L563.5 338.461L541.931 367.717Z" fill="#FD8753"/>
<path d="M564.941 154.072C564.941 154.072 534.036 139.565 518.089 143.365C502.142 147.166 495.444 114.161 495.444 114.161C495.444 114.161 540.907 82.6834 577.712 137.57C604.348 177.272 566.971 151.452 566.971 151.452L564.941 154.072Z" fill="#FD8753"/>
<path d="M520.344 204.395L580.836 342.504L544.707 379.76C544.707 379.76 526.487 364.75 508.267 314.271C490.047 263.792 496.571 214.806 496.571 214.806L520.344 204.395Z" fill="#405E78"/>
<path d="M470.803 71.9942C470.803 71.9942 496.12 58.4765 487.652 49.5573C479.184 40.638 467.801 61.2529 467.801 61.2529L470.803 71.9942Z" fill="white"/>
<path d="M451.09 53.9995C451.09 53.9995 466.517 46.6767 474.499 58.1988C482.238 69.3913 472.555 80.2713 472.555 80.2713L454.266 64.8969L451.09 53.9995Z" fill="white"/>
<path d="M466.899 86.8655L467.003 99.8279C467.003 99.8279 464.695 103.576 457.129 104.253C451.472 104.756 449.494 103.507 449.494 103.507L450.223 96.93L450.934 90.5269L464.608 87.4034L466.899 86.8655Z" fill="#FD8753"/>
<path d="M464.573 87.4033C464.506 87.8337 464.383 88.2537 464.209 88.6527C461.363 95.1426 453.45 96.6176 450.188 96.9299L450.899 90.5268L464.573 87.4033Z" fill="black"/>
<path d="M449.546 59.9688C449.546 59.9688 441.425 76.1935 443.559 85.668C445.694 95.1425 454.266 94.1187 459.454 92.6091C462.383 91.8107 465.044 90.2406 467.159 88.0627C468.584 88.5683 470.133 88.6089 471.583 88.1786C473.033 87.7483 474.309 86.8693 475.228 85.668C478.698 81.4166 476.963 76.2456 474.291 74.9441C473.313 74.608 472.277 74.4777 471.247 74.5613C470.216 74.6449 469.215 74.9406 468.304 75.43L471.098 70.7274C471.098 70.7274 461.728 45.6009 449.546 59.9688Z" fill="#FD8753"/>
<path d="M446.544 81.6075C446.383 81.6042 446.23 81.5424 446.111 81.4338C445.993 81.3252 445.919 81.1771 445.902 81.0175C445.466 77.9481 446.258 74.8308 448.106 72.3412C448.164 72.283 448.233 72.2368 448.309 72.2052C448.384 72.1737 448.466 72.1575 448.548 72.1575C448.63 72.1575 448.712 72.1737 448.788 72.2052C448.864 72.2368 448.933 72.283 448.991 72.3412C449.105 72.4634 449.169 72.6248 449.169 72.7924C449.169 72.96 449.105 73.1213 448.991 73.2435C447.406 75.4787 446.736 78.2349 447.116 80.9481C447.126 81.1156 447.07 81.2803 446.959 81.4067C446.849 81.5332 446.694 81.6115 446.526 81.6248L446.544 81.6075Z" fill="black"/>
<path d="M468.044 82.2495C467.921 82.2513 467.801 82.2157 467.698 82.1476C467.596 82.0794 467.517 81.9818 467.471 81.8677C467.407 81.7133 467.405 81.5399 467.467 81.3843C467.529 81.2287 467.648 81.1033 467.801 81.0348L474.603 78.189C474.755 78.1455 474.918 78.1595 475.06 78.2283C475.202 78.297 475.314 78.4158 475.374 78.5618C475.434 78.7078 475.438 78.8708 475.386 79.0197C475.333 79.1686 475.227 79.293 475.089 79.369L468.287 82.2148C468.21 82.2443 468.127 82.2562 468.044 82.2495Z" fill="black"/>
<path d="M474.03 83.9848C473.856 83.9824 473.688 83.9143 473.562 83.794L470.699 80.7746C470.642 80.7142 470.597 80.6432 470.568 80.5656C470.538 80.488 470.524 80.4054 470.527 80.3224C470.529 80.2394 470.548 80.1577 470.582 80.082C470.616 80.0062 470.664 79.9379 470.725 79.8809C470.785 79.824 470.856 79.7795 470.934 79.7499C471.011 79.7204 471.094 79.7065 471.177 79.7089C471.26 79.7113 471.342 79.73 471.417 79.764C471.493 79.798 471.561 79.8466 471.618 79.907L474.482 82.909C474.6 83.0292 474.667 83.1912 474.667 83.3601C474.667 83.529 474.6 83.6911 474.482 83.8113C474.422 83.8696 474.352 83.915 474.274 83.9449C474.196 83.9747 474.113 83.9883 474.03 83.9848Z" fill="black"/>
<path d="M450.414 86.7091C449.793 86.7299 449.183 86.5433 448.68 86.1788C448.177 85.8143 447.81 85.2926 447.637 84.6962C447.603 84.6167 447.586 84.5311 447.586 84.4446C447.586 84.3581 447.603 84.2726 447.637 84.193C447.687 84.12 447.751 84.0578 447.826 84.0101C447.9 83.9624 447.984 83.9302 448.071 83.9154C449.433 83.673 450.663 82.9531 451.542 81.8851C451.621 81.7769 451.732 81.6957 451.859 81.6523C451.986 81.6089 452.124 81.6054 452.253 81.6422C452.378 81.6823 452.487 81.761 452.565 81.8669C452.643 81.9729 452.686 82.1007 452.687 82.2322C452.774 83.6177 452.409 84.9941 451.646 86.1538C451.482 86.3305 451.283 86.471 451.062 86.5666C450.841 86.6622 450.602 86.7107 450.362 86.7091H450.414ZM449.199 84.9739C449.351 85.1464 449.542 85.2804 449.757 85.3648C449.971 85.4493 450.202 85.4818 450.431 85.4598C450.501 85.4611 450.57 85.4461 450.634 85.416C450.697 85.3859 450.752 85.3414 450.795 85.2862C451.101 84.8879 451.293 84.4141 451.351 83.9154C450.697 84.3801 449.969 84.732 449.199 84.9565V84.9739Z" fill="black"/>
<path d="M453.051 75.1176C452.989 75.133 452.923 75.133 452.86 75.1176C452.77 75.0975 452.685 75.0574 452.611 75.0002C452.538 74.943 452.478 74.8702 452.437 74.7871C452.395 74.704 452.373 74.6126 452.371 74.5197C452.369 74.4268 452.388 74.3346 452.427 74.25L453.294 71.6124L452.6 70.2589C452.562 70.1848 452.54 70.1041 452.533 70.0213C452.527 69.9384 452.537 69.8552 452.563 69.7762C452.589 69.6973 452.63 69.6242 452.684 69.5611C452.738 69.498 452.804 69.4462 452.878 69.4086C452.952 69.371 453.032 69.3484 453.115 69.342C453.198 69.3356 453.281 69.3455 453.36 69.3713C453.439 69.3971 453.512 69.4382 453.575 69.4922C453.639 69.5463 453.69 69.6122 453.728 69.6862L454.526 71.2653C454.56 71.342 454.577 71.4247 454.577 71.5083C454.577 71.5919 454.56 71.6746 454.526 71.7512L453.572 74.6491C453.54 74.7692 453.473 74.8774 453.381 74.9606C453.289 75.0438 453.174 75.0983 453.051 75.1176Z" fill="black"/>
<path d="M444.791 74.2501H444.601C444.52 74.2264 444.445 74.1867 444.38 74.1334C444.315 74.08 444.261 74.0141 444.223 73.9396C444.184 73.865 444.16 73.7834 444.154 73.6996C444.147 73.6158 444.157 73.5315 444.184 73.4518L445.052 70.8143L444.358 69.4608C444.304 69.3146 444.306 69.1539 444.362 69.0088C444.418 68.8637 444.525 68.7439 444.663 68.6718C444.801 68.5996 444.961 68.58 445.112 68.6166C445.263 68.6532 445.396 68.7435 445.486 68.8708L446.301 70.4672C446.361 70.6236 446.361 70.7967 446.301 70.9531L445.364 73.851C445.316 73.9644 445.236 74.0619 445.135 74.1325C445.034 74.2031 444.915 74.2438 444.791 74.2501Z" fill="black"/>
<path d="M446.908 66.7363C446.75 66.7335 446.599 66.6742 446.481 66.5691C446.363 66.464 446.287 66.3201 446.266 66.1636C446.257 66.0815 446.263 65.9983 446.286 65.9188C446.309 65.8393 446.347 65.7651 446.399 65.7006C446.45 65.636 446.514 65.5823 446.587 65.5427C446.66 65.503 446.739 65.4781 446.821 65.4695L448.695 65.2439C448.779 65.2318 448.864 65.2367 448.946 65.2583C449.027 65.2799 449.103 65.3178 449.17 65.3697C449.236 65.4216 449.292 65.4864 449.332 65.5602C449.373 65.634 449.399 65.7153 449.407 65.7992C449.422 65.9662 449.373 66.1327 449.27 66.2648C449.167 66.397 449.017 66.4849 448.852 66.5107L446.978 66.7189L446.908 66.7363Z" fill="black"/>
<path d="M369.377 82.6313C369.377 82.6313 385.827 105.19 401.618 109.528C417.409 113.866 407.587 145.968 407.587 145.968C407.587 145.968 352.614 151.816 346.576 86.015C342.203 38.4169 364.622 82.6313 364.622 82.6313H369.377Z" fill="#FD8753"/>
<path d="M456.296 68.3676C456.205 68.3911 456.11 68.3911 456.019 68.3676L452.288 66.6323C452.144 66.5562 452.035 66.4276 451.983 66.2732C451.932 66.1188 451.942 65.9505 452.011 65.8032C452.08 65.6559 452.203 65.5408 452.355 65.482C452.507 65.4231 452.675 65.4249 452.826 65.487L456.557 67.2223C456.683 67.2862 456.785 67.3904 456.847 67.5185C456.908 67.6465 456.925 67.7913 456.895 67.9301C456.866 68.0689 456.791 68.194 456.682 68.2857C456.574 68.3774 456.438 68.4306 456.296 68.437V68.3676Z" fill="black"/>
<path d="M511.078 162.748C511.078 162.748 524.041 204.637 523.121 208.542C522.201 212.446 513.23 234.067 512.709 235.872C512.189 237.677 528.761 384.289 528.761 384.289L474.534 397.806C474.534 397.806 438.093 241.356 442.553 195.996C447.013 150.636 511.078 162.748 511.078 162.748Z" fill="#405E78"/>
<path d="M382.613 70.9886L383.976 66.9254L322.748 46.387L321.385 50.4502L382.613 70.9886Z" fill="white"/>
<path d="M466.76 78.2757C461.965 76.3575 457.892 72.983 455.116 68.6277C450.049 61.0793 450.223 59.2052 450.223 59.2052L446.752 66.476C446.752 66.476 444.583 60.524 446.752 56.9321C448.921 53.3401 451.16 53.9995 451.16 53.9995L466.586 57.2964L472.243 69.4433L466.76 78.2757Z" fill="white"/>
<path d="M390.981 102.483C390.981 102.483 419.717 105.658 428.185 103.541C436.653 101.424 458.153 98.8561 474.013 97.9538C489.873 97.0515 513.924 98.11 524.804 99.9146C530.06 100.711 535.272 101.771 540.421 103.09C539.904 112.677 538.791 122.221 537.09 131.67L534.209 145.136L510.471 143.4L518.904 179.424C518.904 179.424 506.965 187.163 480.19 193.983C453.415 200.803 438.995 195.51 438.995 195.51L430.441 153.309C430.441 153.309 410.329 153.014 400.195 150.74C390.061 148.467 388.551 148.172 388.551 148.172L390.981 102.483Z" fill="#455A64"/>
<path d="M367.832 86.015C367.832 86.015 373.958 73.1047 373.594 70.1548C373.229 67.2048 366.809 65.1399 366.809 65.1399C366.809 65.1399 365.49 53.236 363.008 52.3336C360.527 51.4313 359.226 55.0754 359.226 55.0754C359.226 55.0754 357.751 47.6311 354.697 48.5161C351.643 49.4011 351.053 53.8607 351.053 53.8607C351.053 53.8607 350.463 47.9782 346.819 49.4184C343.174 50.8587 339.982 65.2093 341.734 77.5123C342.334 81.1744 343.795 84.6416 345.998 87.6283C348.2 90.6151 351.08 93.0359 354.402 94.6913L367.832 86.015Z" fill="#FD8753"/>
<path d="M367.676 74.0765C367.52 74.0732 367.371 74.0133 367.256 73.9079C367.141 73.8025 367.068 73.659 367.052 73.5039L366.167 65.2094C366.152 65.0417 366.204 64.875 366.311 64.7452C366.418 64.6154 366.572 64.5328 366.739 64.5153C366.822 64.5031 366.906 64.5081 366.986 64.5299C367.067 64.5517 367.142 64.5898 367.207 64.6419C367.272 64.694 367.326 64.7589 367.365 64.8327C367.404 64.9064 367.427 64.9874 367.433 65.0706L368.318 73.3651C368.333 73.5347 368.282 73.7034 368.175 73.836C368.068 73.9686 367.915 74.0548 367.746 74.0765H367.676Z" fill="black"/>
<path d="M562.546 149.56C562.546 149.56 563.361 160.753 565.079 164.709C566.797 168.665 569.938 173.385 572.333 172.622C574.727 171.858 570.927 161.447 570.927 161.447C575.159 164.149 579.216 167.117 583.074 170.331C588.28 174.826 590.015 178.487 592.653 178.418C595.29 178.348 594.839 173.333 594.839 173.333C594.839 173.333 596.939 176.144 599.073 175.155C601.207 174.166 599.611 168.752 599.611 168.752C599.611 168.752 603.324 169.95 603.637 166.167C603.949 162.384 594.666 150.775 586.284 145.101C581.535 141.746 575.798 140.078 569.99 140.363L562.546 149.56Z" fill="#FD8753"/>
<path d="M575.925 161.846C575.807 161.844 575.692 161.812 575.591 161.751C575.491 161.689 575.408 161.603 575.352 161.499C575.279 161.349 575.267 161.176 575.319 161.017C575.371 160.859 575.482 160.726 575.63 160.649L589.859 153.204C590.006 153.126 590.179 153.11 590.338 153.158C590.498 153.207 590.631 153.317 590.709 153.465C590.788 153.612 590.804 153.784 590.755 153.944C590.707 154.103 590.596 154.237 590.449 154.315L576.22 161.777C576.128 161.822 576.027 161.846 575.925 161.846Z" fill="black"/>
<path d="M599.594 169.377C599.487 169.376 599.381 169.349 599.287 169.298C599.193 169.246 599.114 169.172 599.056 169.082C595.884 164.078 592.346 159.316 588.471 154.835C588.403 154.776 588.348 154.703 588.311 154.622C588.273 154.54 588.253 154.451 588.252 154.361C588.25 154.271 588.268 154.182 588.303 154.099C588.339 154.017 588.391 153.942 588.457 153.881C588.523 153.82 588.601 153.773 588.687 153.744C588.772 153.715 588.862 153.705 588.952 153.713C589.041 153.721 589.128 153.748 589.207 153.792C589.285 153.836 589.354 153.896 589.408 153.968C593.332 158.51 596.916 163.336 600.132 168.405C600.176 168.477 600.206 168.557 600.22 168.64C600.233 168.723 600.23 168.809 600.211 168.891C600.192 168.973 600.156 169.051 600.107 169.119C600.058 169.188 599.995 169.246 599.923 169.29C599.825 169.353 599.71 169.383 599.594 169.377Z" fill="black"/>
<path d="M594.822 173.958C594.725 173.958 594.63 173.936 594.542 173.894C594.455 173.852 594.379 173.791 594.319 173.715L582.571 158.531C582.519 158.467 582.48 158.392 582.457 158.313C582.435 158.233 582.428 158.149 582.437 158.067C582.447 157.985 582.473 157.905 582.514 157.833C582.555 157.761 582.609 157.697 582.675 157.646C582.741 157.594 582.817 157.555 582.898 157.532C582.979 157.509 583.064 157.502 583.148 157.512C583.232 157.521 583.313 157.547 583.386 157.588C583.46 157.629 583.525 157.684 583.577 157.751L595.412 172.934C595.511 173.071 595.554 173.242 595.532 173.41C595.509 173.578 595.423 173.73 595.29 173.836C595.225 173.889 595.15 173.926 595.069 173.947C594.988 173.968 594.904 173.972 594.822 173.958Z" fill="black"/>
<path d="M575.63 156.848H575.509C575.426 156.836 575.348 156.807 575.277 156.763C575.207 156.719 575.146 156.661 575.099 156.593C575.052 156.524 575.019 156.447 575.003 156.366C574.987 156.284 574.988 156.201 575.005 156.119C576.047 150.081 569.4 145.014 569.348 144.962C569.28 144.914 569.222 144.852 569.178 144.781C569.134 144.71 569.105 144.631 569.092 144.549C569.079 144.466 569.083 144.382 569.103 144.301C569.123 144.22 569.159 144.144 569.21 144.077C569.312 143.946 569.462 143.86 569.627 143.837C569.793 143.814 569.96 143.857 570.095 143.955C570.407 144.181 577.417 149.543 576.237 156.328C576.213 156.472 576.139 156.603 576.028 156.698C575.917 156.793 575.776 156.846 575.63 156.848Z" fill="black"/>
<path d="M501.916 404.591C501.916 404.591 491.99 396.418 487.617 399.038C483.245 401.659 471.271 425.883 471.271 425.883C471.271 425.883 454.856 430.134 449.893 435.08C444.93 440.025 448.713 448.511 449.893 449.101C451.073 449.691 489.665 448.354 491.417 447.487C493.17 446.619 538.686 417.415 539.554 416.252C540.421 415.089 527.893 386.197 525.55 387.082C523.208 387.967 501.916 404.591 501.916 404.591Z" fill="#FFC947"/>
<path d="M554.442 382.068C554.442 382.068 564.941 412.417 563.119 414.17C561.297 415.923 556.716 429.041 556.716 435.184C556.716 441.327 564.299 446.845 565.756 446.845C567.214 446.845 593.833 416.218 594.822 414.465C595.811 412.712 606.014 354.633 604.852 354.356C603.689 354.078 575.179 347.414 573.756 348.959C572.333 350.503 569.539 380.315 569.539 380.315C569.539 380.315 560.013 374.19 554.442 382.068Z" fill="#FFC947"/>
<path d="M563.188 414.794C563.108 414.796 563.028 414.781 562.954 414.751C562.879 414.721 562.812 414.677 562.754 414.621C562.693 414.563 562.645 414.493 562.612 414.415C562.579 414.337 562.562 414.254 562.562 414.17C562.562 414.085 562.579 414.002 562.612 413.924C562.645 413.847 562.693 413.777 562.754 413.719L568.88 407.593C568.939 407.535 569.009 407.489 569.086 407.458C569.163 407.427 569.245 407.412 569.328 407.412C569.411 407.413 569.493 407.43 569.57 407.463C569.646 407.495 569.715 407.543 569.773 407.602C569.831 407.661 569.877 407.731 569.908 407.808C569.939 407.885 569.955 407.967 569.954 408.05C569.953 408.133 569.936 408.215 569.904 408.292C569.871 408.368 569.824 408.437 569.765 408.495L563.639 414.621C563.58 414.679 563.509 414.725 563.432 414.755C563.354 414.784 563.271 414.798 563.188 414.794Z" fill="#5E1DBB"/>
<path d="M525.065 352.898C524.909 352.896 524.76 352.839 524.642 352.737C524.525 352.636 524.447 352.496 524.423 352.343C522.965 339.797 510.141 229.781 510.54 227.647C510.94 225.512 520.379 212.151 522.288 209.496C522.397 209.389 522.539 209.325 522.691 209.314C522.843 209.302 522.994 209.345 523.117 209.435C523.239 209.525 523.327 209.655 523.362 209.803C523.398 209.951 523.38 210.106 523.312 210.242C518.974 216.298 511.998 226.415 511.79 227.838C511.634 230.18 520.865 310.21 525.776 352.186C525.791 352.353 525.742 352.52 525.639 352.652C525.536 352.784 525.386 352.872 525.221 352.898H525.065Z" fill="#5E1DBB"/>
<path d="M459.836 228.983H459.68C448.192 226.189 448.696 213.73 448.696 213.609C448.713 213.447 448.791 213.297 448.915 213.192C449.039 213.086 449.199 213.032 449.362 213.041C449.525 213.05 449.678 213.121 449.79 213.24C449.901 213.358 449.963 213.515 449.962 213.678C449.962 214.147 449.511 225.2 459.975 227.751C460.115 227.797 460.235 227.89 460.315 228.014C460.395 228.138 460.43 228.286 460.413 228.432C460.397 228.579 460.331 228.715 460.226 228.819C460.12 228.922 459.983 228.987 459.836 229.001V228.983Z" fill="#5E1DBB"/>
<path d="M534.73 368.585C534.65 368.586 534.57 368.571 534.496 368.541C534.421 368.511 534.353 368.467 534.296 368.411C534.238 368.353 534.192 368.284 534.16 368.208C534.129 368.132 534.112 368.051 534.112 367.969C534.112 367.886 534.129 367.805 534.16 367.729C534.192 367.653 534.238 367.584 534.296 367.526L573.374 326.036C573.494 325.917 573.656 325.851 573.825 325.851C573.994 325.851 574.156 325.917 574.276 326.036C574.337 326.093 574.385 326.161 574.418 326.238C574.451 326.314 574.468 326.396 574.468 326.479C574.468 326.561 574.451 326.643 574.418 326.72C574.385 326.796 574.337 326.864 574.276 326.921L535.198 368.394C535.073 368.516 534.905 368.584 534.73 368.585Z" fill="#5E1DBB"/>
<path d="M471.184 383.994C471.04 383.997 470.899 383.951 470.785 383.862C470.671 383.774 470.592 383.649 470.56 383.508C470.528 383.343 470.561 383.172 470.651 383.03C470.741 382.888 470.882 382.786 471.046 382.744L525.932 370.146C526.018 370.11 526.11 370.093 526.204 370.096C526.297 370.1 526.388 370.123 526.471 370.165C526.554 370.207 526.627 370.267 526.685 370.34C526.743 370.413 526.784 370.498 526.806 370.589C526.827 370.679 526.829 370.773 526.811 370.865C526.792 370.956 526.754 371.042 526.699 371.117C526.644 371.193 526.573 371.255 526.492 371.3C526.41 371.345 526.32 371.372 526.227 371.378L471.323 383.994H471.184Z" fill="#5E1DBB"/>
<path d="M430.441 153.933C430.322 153.928 430.206 153.892 430.106 153.828C430.005 153.764 429.923 153.674 429.868 153.569L425.947 145.222C425.906 145.146 425.882 145.063 425.875 144.978C425.868 144.892 425.879 144.806 425.906 144.725C425.933 144.644 425.976 144.569 426.033 144.505C426.09 144.441 426.16 144.389 426.237 144.353C426.315 144.316 426.399 144.296 426.485 144.293C426.57 144.29 426.656 144.304 426.736 144.335C426.815 144.366 426.888 144.413 426.949 144.473C427.011 144.533 427.059 144.605 427.092 144.684L431.013 153.031C431.051 153.104 431.074 153.185 431.079 153.267C431.085 153.35 431.073 153.433 431.046 153.511C431.018 153.589 430.975 153.66 430.919 153.721C430.862 153.782 430.794 153.83 430.719 153.864C430.635 153.913 430.538 153.937 430.441 153.933Z" fill="white"/>
<path d="M510.436 143.955C510.269 143.951 510.11 143.881 509.993 143.761C509.877 143.641 509.811 143.481 509.812 143.313V135.262C509.812 135.18 509.828 135.098 509.859 135.023C509.891 134.947 509.936 134.878 509.994 134.82C510.052 134.762 510.121 134.716 510.197 134.685C510.273 134.653 510.354 134.637 510.436 134.637C510.604 134.637 510.764 134.702 510.884 134.819C511.004 134.936 511.074 135.094 511.078 135.262V143.313C511.074 143.482 511.005 143.643 510.885 143.762C510.766 143.882 510.605 143.951 510.436 143.955Z" fill="white"/>
<path d="M124.671 393.954V412.487L160.244 411.185V393.954H124.671Z" fill="#FD8753"/>
<path d="M37.1963 391.872V410.404L70.1315 409.103V391.872H37.1963Z" fill="#FD8753"/>
<path d="M78.3045 441.032C78.3045 444.311 77.1766 447.973 74.834 448.997C72.4914 450.02 54.0109 451.895 37.7168 450.506C22.0995 449.17 18.9413 448.042 17.796 446.654C17.2234 445.96 18.3166 442.68 19.5313 439.522C19.5627 439.341 19.6338 439.169 19.7395 439.019C20.3815 437.422 21.0409 435.878 21.4747 434.785C21.9556 433.731 22.5367 432.726 23.21 431.783C25.4907 428.853 27.4621 425.696 29.0926 422.36C30.2031 419.115 31.921 412.105 33.0663 408.808C33.3646 407.889 33.8774 407.054 34.5624 406.372C35.2473 405.69 36.0847 405.181 37.0053 404.886C37.0053 404.886 69.0035 402.735 71.294 404.609C73.5845 406.483 74.7645 421.961 74.7645 424.235V426.508C74.7645 428.694 76.2742 432.98 77.2633 436.537C77.5409 437.422 77.7492 438.273 77.9054 439.019C78.1035 439.675 78.2371 440.349 78.3045 441.032Z" fill="white"/>
<path d="M220.162 447.713C218.028 448.58 127.222 451.01 125.122 447.713C124.48 446.723 124.029 443.34 123.734 439.036C122.988 429.041 122.988 414.17 122.988 414.17C122.655 411.708 122.475 409.227 122.45 406.743C122.554 404.418 166.23 405.303 166.23 405.303L194.324 423.488C199.782 425.064 205.327 426.321 210.931 427.254C215.425 427.965 218.34 433.379 219.78 438.481C221.064 443.079 221.169 447.331 220.162 447.713Z" fill="white"/>
<path d="M103.969 187.857C103.969 187.857 144.106 227.942 160.122 290.741C176.139 353.54 175.063 399.75 175.063 399.75H114.537C114.537 399.75 112.958 361.383 106.294 329.992C102.397 311.412 96.9285 293.195 89.9482 275.54L83.4236 399.819H23.0193C23.0193 399.819 34.1076 219.456 44.8662 192.525C53.6119 170.54 103.969 187.857 103.969 187.857Z" fill="#90E0EF" fill-opacity="0.8"/>
<path d="M62.3923 418.855H62.3055C55.084 417.986 47.7843 417.986 40.5627 418.855C40.4047 418.857 40.2515 418.801 40.1324 418.697C40.0133 418.593 39.9368 418.448 39.9174 418.292C39.8981 418.135 39.9373 417.976 40.0275 417.846C40.1178 417.717 40.2528 417.625 40.4066 417.588C47.7384 416.719 55.1472 416.719 62.4791 417.588C62.6469 417.614 62.7977 417.705 62.8985 417.842C62.9993 417.978 63.0419 418.149 63.017 418.317C62.9959 418.467 62.9209 418.605 62.806 418.704C62.691 418.803 62.544 418.856 62.3923 418.855Z" fill="#FFB700"/>
<path d="M89.9482 276.113C89.7779 276.113 89.6146 276.045 89.4942 275.925C89.3738 275.804 89.3062 275.641 89.3062 275.471L89.8441 232.488C89.8436 232.363 89.8817 232.241 89.9532 232.139C90.0246 232.036 90.1259 231.958 90.2432 231.916L106.034 225.825C106.111 225.794 106.194 225.779 106.277 225.781C106.361 225.783 106.443 225.802 106.519 225.835C106.594 225.869 106.663 225.918 106.72 225.979C106.777 226.04 106.821 226.111 106.85 226.189C106.883 226.266 106.9 226.35 106.899 226.433C106.898 226.517 106.88 226.6 106.846 226.677C106.812 226.754 106.762 226.822 106.7 226.879C106.638 226.935 106.565 226.978 106.485 227.005L91.1108 232.939L90.5903 275.488C90.5858 275.655 90.5161 275.814 90.3962 275.931C90.2763 276.047 90.1155 276.113 89.9482 276.113Z" fill="white"/>
<path d="M171.071 416.096C170.904 416.096 170.743 416.031 170.623 415.914C170.503 415.797 170.434 415.639 170.429 415.471C170.427 415.388 170.441 415.305 170.472 415.227C170.502 415.149 170.548 415.078 170.606 415.018C170.664 414.958 170.734 414.911 170.811 414.878C170.888 414.846 170.97 414.829 171.054 414.829L180.546 414.69C180.629 414.688 180.712 414.703 180.79 414.733C180.868 414.763 180.939 414.809 180.999 414.867C181.059 414.925 181.106 414.995 181.139 415.072C181.171 415.149 181.188 415.232 181.188 415.315C181.188 415.482 181.123 415.643 181.006 415.763C180.889 415.883 180.73 415.953 180.563 415.957L171.071 416.096Z" fill="#FFB700"/>
<path d="M171.106 131.93C171.934 127.267 173.764 122.838 176.468 118.95C180.286 113.502 186.116 106.543 191.374 105.849C200.137 104.669 213.481 108.556 214.28 114.647C215.078 120.738 211.781 122.126 211.781 122.126C211.781 122.126 212.51 125.996 210.931 127.696L209.369 129.431C209.369 129.431 210.341 134.325 204.649 134.915C198.957 135.505 195.834 134.359 194.845 133.561C194.274 133.097 193.766 132.561 193.335 131.965C193.763 132.737 194.009 133.596 194.055 134.478C194.1 135.359 193.944 136.239 193.597 137.051C193.251 137.863 192.724 138.585 192.056 139.162C191.388 139.739 190.597 140.156 189.743 140.381C183.08 142.966 171.106 131.965 171.106 131.965V131.93Z" fill="#FD8753"/>
<path d="M209.282 122.837C205.506 122.887 201.762 122.136 198.298 120.634C194.549 118.898 192.658 117.059 192.849 115.428C192.849 114.647 193.543 113.606 195.886 113.102C197.188 112.85 198.521 112.786 199.842 112.912C200.824 113.074 201.829 113.034 202.796 112.795C203.762 112.557 204.67 112.124 205.464 111.523C205.602 111.454 205.76 111.436 205.91 111.474C206.06 111.512 206.191 111.602 206.279 111.728C206.368 111.855 206.408 112.009 206.392 112.163C206.376 112.316 206.305 112.459 206.193 112.565C204.35 113.93 202.042 114.51 199.773 114.178C198.567 114.06 197.351 114.118 196.163 114.352C194.931 114.612 194.168 115.063 194.098 115.584C194.029 116.105 195.209 117.788 198.835 119.506C202.907 121.187 207.323 121.866 211.711 121.484C211.794 121.469 211.879 121.472 211.961 121.493C212.042 121.513 212.119 121.551 212.184 121.604C212.25 121.656 212.304 121.722 212.342 121.797C212.38 121.873 212.402 121.955 212.405 122.039C212.415 122.121 212.408 122.204 212.385 122.284C212.363 122.363 212.324 122.438 212.273 122.502C212.221 122.567 212.157 122.62 212.084 122.66C212.012 122.7 211.932 122.725 211.85 122.733C210.997 122.817 210.139 122.852 209.282 122.837Z" fill="black"/>
<path d="M185.821 112.061C185.821 112.061 197.968 115.653 196.806 118.395C195.643 121.137 188.372 121.033 188.372 121.033C188.372 121.033 195.036 131.357 187.591 136.65L185.821 112.061Z" fill="#FD8753"/>
<path d="M187.592 137.275C187.456 137.277 187.324 137.237 187.214 137.158C187.104 137.079 187.022 136.967 186.981 136.838C186.94 136.709 186.942 136.571 186.986 136.443C187.03 136.315 187.115 136.205 187.227 136.129C194.168 131.253 188.095 121.779 187.834 121.38C187.78 121.281 187.751 121.171 187.751 121.059C187.751 120.946 187.78 120.836 187.834 120.737C187.888 120.637 187.968 120.553 188.066 120.495C188.164 120.437 188.276 120.407 188.39 120.408H188.667C191.322 120.408 195.608 119.818 196.268 118.152C196.316 118.029 196.316 117.893 196.268 117.77C195.47 116.035 189.327 113.744 185.717 112.669C185.556 112.623 185.42 112.514 185.339 112.368C185.257 112.222 185.238 112.049 185.284 111.888C185.33 111.727 185.438 111.59 185.584 111.509C185.731 111.428 185.903 111.408 186.064 111.454C187.088 111.749 196.112 114.473 197.413 117.232C197.511 117.454 197.562 117.693 197.562 117.935C197.562 118.177 197.511 118.417 197.413 118.638C196.355 121.102 191.669 121.57 189.466 121.657C190.941 124.434 194.446 132.555 187.973 137.17C187.858 137.24 187.726 137.276 187.592 137.275Z" fill="black"/>
<path d="M209.368 130.021C208.987 130.021 200.276 130.021 195.209 128.043C193.73 127.59 192.465 126.62 191.642 125.311C190.82 124.001 190.497 122.439 190.732 120.911C190.781 120.761 190.884 120.634 191.02 120.555C191.157 120.476 191.318 120.45 191.473 120.482C191.628 120.514 191.765 120.603 191.859 120.73C191.952 120.857 191.996 121.014 191.981 121.171C191.791 122.406 192.061 123.667 192.739 124.716C193.417 125.765 194.456 126.529 195.66 126.863C200.501 128.685 209.282 128.755 209.368 128.755C209.536 128.759 209.695 128.829 209.811 128.949C209.928 129.069 209.993 129.229 209.993 129.397C209.993 129.562 209.927 129.721 209.81 129.838C209.693 129.955 209.534 130.021 209.368 130.021Z" fill="black"/>
<path d="M196.892 113.607H201.907V94.0683H196.892V113.607Z" fill="black"/>
<path d="M190.593 74.9094C190.593 85.616 193.613 94.2749 197.361 94.2749C201.109 94.2749 204.128 85.5986 204.128 74.9094C204.128 64.2202 201.109 55.5613 197.361 55.5613C193.613 55.5613 190.593 64.2202 190.593 74.9094Z" fill="white"/>
<path d="M129.391 400.479C129.23 400.475 129.076 400.414 128.958 400.305C128.84 400.196 128.765 400.048 128.749 399.889C128.662 398.743 119.639 285.552 90.0003 251.94C89.8856 251.818 89.8218 251.657 89.8218 251.489C89.8218 251.322 89.8856 251.16 90.0003 251.038C90.1205 250.919 90.2825 250.853 90.4514 250.853C90.6203 250.853 90.7824 250.919 90.9026 251.038C120.818 284.962 129.877 398.535 129.963 399.715C129.973 399.8 129.965 399.886 129.94 399.967C129.915 400.049 129.874 400.125 129.819 400.19C129.763 400.255 129.695 400.308 129.619 400.346C129.542 400.383 129.459 400.405 129.373 400.409L129.391 400.479Z" fill="white"/>
<path d="M46.9834 219.647H45.6646C45.5731 219.651 45.4819 219.635 45.3971 219.6C45.3123 219.566 45.236 219.513 45.1731 219.447C45.1102 219.38 45.0623 219.301 45.0326 219.214C45.0028 219.128 44.992 219.036 45.0007 218.945C45.0095 218.853 45.0376 218.765 45.0832 218.686C45.1289 218.606 45.191 218.538 45.2654 218.484C45.3397 218.431 45.4247 218.394 45.5145 218.376C45.6043 218.358 45.6969 218.36 45.7861 218.381C53.8897 219.179 59.3384 211.336 59.3905 211.249C59.4372 211.18 59.4969 211.122 59.5663 211.077C59.6356 211.031 59.7131 211 59.7945 210.985C59.8759 210.97 59.9595 210.97 60.0405 210.987C60.1216 211.004 60.1984 211.037 60.2668 211.084C60.3352 211.131 60.3936 211.19 60.4389 211.26C60.4842 211.329 60.5154 211.407 60.5307 211.488C60.546 211.569 60.5451 211.653 60.5281 211.734C60.5112 211.815 60.4784 211.892 60.4317 211.96C60.2581 212.238 55.0524 219.647 46.9834 219.647Z" fill="white"/>
<path d="M171.748 114.699L196.215 144.528C196.215 144.528 178.863 165.976 159.237 173.056C139.611 180.135 117.92 173.056 117.92 173.056V204.707H40.7188C40.7188 204.707 44.1893 117.649 46.688 116.799C64.9256 110.673 89.9654 108.33 101.609 111.037C106.381 112.148 135.325 127.262 139.663 127.783C144.001 128.303 171.748 114.699 171.748 114.699Z" fill="#263238"/>
<path d="M68.7432 89.5551C71.364 88.7208 73.713 87.1987 75.5454 85.1475C77.6277 82.2323 77.5583 75.378 77.5583 75.378C77.5583 75.378 86.5469 79.3518 88.8028 78.6924C91.0586 78.033 94.8935 67.5173 91.5792 63.2832C88.2648 59.0492 82.5211 64.9318 82.5211 64.9318C82.3026 64.0816 81.9088 63.2866 81.365 62.5975C80.8212 61.9085 80.1395 61.3408 79.3634 60.9307C78.5873 60.5206 77.7341 60.2772 76.8585 60.2162C75.9828 60.1551 75.1041 60.2778 74.2786 60.5762C66.5567 62.8147 65.0297 70.9011 65.0297 70.9011C65.0297 70.9011 63.9539 62.2248 58.7481 66.4241C53.5423 70.6234 56.1278 80.3062 56.1278 80.3062C56.1278 80.3062 51.8765 82.4752 53.0044 86.5184C54.1323 90.5615 60.2924 94.1709 60.2924 94.1709L68.7432 89.5551Z" fill="white"/>
<path d="M68.7433 102.014L68.4309 115.115C68.4309 115.115 70.7909 118.933 78.7037 119.697C84.6035 120.269 86.7032 119.02 86.7032 119.02L86.0438 112.356L85.3844 105.884L71.1379 102.57L68.7433 102.014Z" fill="#FD8753"/>
<path d="M71.1379 102.552C71.1857 102.992 71.309 103.421 71.5024 103.819C74.3829 110.43 82.6427 111.992 86.0438 112.339L85.3845 105.866L71.1379 102.552Z" fill="black"/>
<path d="M89.1327 75.9853C89.1327 75.9853 95.8481 92.5397 92.8288 101.615C89.8094 110.69 81.22 108.955 76.1183 107.012C73.2483 106.01 70.7009 104.253 68.7434 101.927C67.269 102.301 65.7154 102.211 64.2936 101.671C62.8717 101.131 61.6506 100.166 60.7959 98.9081C57.7419 94.4658 59.9283 89.5377 62.7394 88.4965C63.7551 88.2472 64.8108 88.2062 65.8427 88.3762C66.8747 88.5462 67.8614 88.9236 68.7434 89.4856L66.3661 84.6616C66.3661 84.6616 78.1485 60.9927 89.1327 75.9853Z" fill="#FD8753"/>
<path d="M68.0839 96.8084C67.9468 96.8109 67.8126 96.7682 67.7022 96.6869L61.6981 92.3314C61.6149 92.2896 61.5417 92.2301 61.4838 92.1571C61.4258 92.0842 61.3844 91.9995 61.3625 91.9089C61.3406 91.8183 61.3386 91.7241 61.3568 91.6327C61.375 91.5413 61.4128 91.4549 61.4677 91.3796C61.5226 91.3043 61.5932 91.2418 61.6746 91.1966C61.7561 91.1513 61.8464 91.1243 61.9393 91.1175C62.0322 91.1106 62.1256 91.1241 62.2128 91.1569C62.3 91.1897 62.379 91.2412 62.4443 91.3076L68.4483 95.6631C68.5822 95.7635 68.6717 95.9121 68.6976 96.0774C68.7235 96.2427 68.6839 96.4116 68.5871 96.5481C68.5307 96.6291 68.4554 96.6952 68.3677 96.7405C68.28 96.7859 68.1827 96.8092 68.0839 96.8084Z" fill="black"/>
<path d="M76.6215 84.2625C76.5022 84.2594 76.3862 84.2231 76.2864 84.1577C76.1866 84.0923 76.107 84.0003 76.0566 83.8922C76.0061 83.7841 75.9868 83.6641 76.0008 83.5456C76.0147 83.4271 76.0614 83.3148 76.1356 83.2214C76.7395 82.4268 77.5712 81.8352 78.5198 81.5252C79.4684 81.2152 80.489 81.2015 81.4455 81.4861C81.6034 81.5448 81.7319 81.6632 81.8033 81.8158C81.8748 81.9683 81.8834 82.1428 81.8273 82.3017C81.8 82.3792 81.7578 82.4506 81.7029 82.5118C81.648 82.573 81.5816 82.6228 81.5074 82.6582C81.4333 82.6937 81.3528 82.7142 81.2708 82.7185C81.1887 82.7228 81.1065 82.7109 81.0291 82.6834C80.3083 82.4906 79.5458 82.5237 78.8445 82.7781C78.1431 83.0326 77.5368 83.4962 77.1074 84.1063C77.0414 84.1642 76.9642 84.2079 76.8806 84.2348C76.797 84.2616 76.7089 84.2711 76.6215 84.2625Z" fill="black"/>
<path d="M90.7809 82.4925C90.6367 82.4888 90.4972 82.4403 90.3818 82.3537C89.9824 82.025 89.4972 81.8177 88.9837 81.7562C88.4701 81.6947 87.9497 81.7816 87.484 82.0066C87.4117 82.0484 87.3317 82.0748 87.2488 82.0843C87.1659 82.0937 87.0819 82.086 87.0022 82.0616C86.9224 82.0372 86.8485 81.9966 86.7851 81.9423C86.7217 81.8881 86.6702 81.8214 86.6337 81.7463C86.559 81.5984 86.5443 81.4273 86.5928 81.2688C86.6413 81.1104 86.7492 80.9768 86.894 80.8961C87.5809 80.55 88.3538 80.4116 89.1181 80.4979C89.8824 80.5842 90.6049 80.8914 91.1974 81.3819C91.2556 81.44 91.3018 81.5089 91.3334 81.5849C91.3649 81.6608 91.3811 81.7422 91.3811 81.8244C91.3811 81.9066 91.3649 81.988 91.3334 82.064C91.3018 82.1399 91.2556 82.2089 91.1974 82.2669C91.1473 82.3312 91.0845 82.3845 91.0128 82.4233C90.9412 82.4622 90.8622 82.4857 90.7809 82.4925Z" fill="black"/>
<path d="M90.4514 88.7914C90.3124 88.792 90.1773 88.7462 90.0673 88.6614C89.9573 88.5765 89.8787 88.4574 89.844 88.3229L89.0632 85.3036C89.0281 85.2185 89.0117 85.1268 89.0151 85.0349C89.0185 84.9429 89.0417 84.8527 89.083 84.7705C89.1244 84.6882 89.1829 84.6159 89.2547 84.5582C89.3264 84.5006 89.4097 84.4591 89.499 84.4364C89.5882 84.4138 89.6812 84.4106 89.7717 84.4271C89.8623 84.4436 89.9482 84.4794 90.0237 84.532C90.0993 84.5846 90.1626 84.6529 90.2094 84.7321C90.2562 84.8113 90.2855 84.8997 90.2952 84.9912L91.0761 88.0106C91.1135 88.1714 91.0875 88.3405 91.0035 88.4827C90.9195 88.6249 90.7839 88.7293 90.6249 88.7741L90.4514 88.7914Z" fill="black"/>
<path d="M80.6818 89.4162C80.5429 89.4167 80.4078 89.3709 80.2978 89.2861C80.1878 89.2012 80.1093 89.0821 80.0745 88.9476L79.2936 85.9283C79.2499 85.7649 79.2729 85.5909 79.3575 85.4444C79.4421 85.298 79.5815 85.1911 79.7448 85.1474C79.9082 85.1037 80.0823 85.1267 80.2287 85.2113C80.3751 85.2959 80.4819 85.4352 80.5257 85.5986L81.3066 88.6179C81.3273 88.7 81.3317 88.7853 81.3193 88.869C81.307 88.9528 81.2782 89.0332 81.2347 89.1058C81.1912 89.1784 81.1337 89.2416 81.0656 89.2919C80.9975 89.3422 80.9202 89.3785 80.838 89.3988L80.6818 89.4162Z" fill="black"/>
<path d="M83.5973 101.077H83.0766C81.8273 100.8 80.8208 99.5154 80.0747 97.2596C80.0355 97.1364 80.0344 97.0042 80.0715 96.8804C80.1087 96.7565 80.1823 96.6468 80.2829 96.5655C80.3864 96.4907 80.5109 96.4504 80.6386 96.4504C80.7663 96.4504 80.8908 96.4907 80.9944 96.5655L85.6101 99.1857C85.6952 99.2339 85.7678 99.3014 85.8221 99.3828C85.8763 99.4642 85.9107 99.5572 85.9225 99.6543C85.9416 99.7472 85.9374 99.8434 85.9101 99.9343C85.8828 100.025 85.8334 100.108 85.7663 100.175C85.1843 100.74 84.4087 101.063 83.5973 101.077ZM81.9834 98.4743C82.4172 99.2205 82.8684 99.6716 83.3543 99.7758C83.6111 99.8371 83.8813 99.8064 84.1178 99.689L81.9834 98.4743Z" fill="black"/>
<path d="M68.7434 89.5551C70.2052 89.1765 71.5658 88.4814 72.7293 87.5188C73.8927 86.5563 74.8304 85.3499 75.4762 83.9849C76.4546 81.4025 76.8343 78.6317 76.5868 75.8813C77.5797 76.7219 78.7474 77.3309 80.005 77.6641C81.2626 77.9973 82.5786 78.0462 83.8575 77.8074C85.1903 77.5079 86.409 76.8319 87.3688 75.8598C88.3286 74.8878 88.989 73.6605 89.2715 72.324L84.8293 67.7429C84.8293 67.7429 68.0666 72.3934 67.6155 71.9075C67.1643 71.4217 61.6809 82.805 61.6809 82.805L68.7434 89.5551Z" fill="white"/>
<path d="M62.5485 96.9645C62.4371 96.9636 62.3278 96.9344 62.2307 96.8798C62.1336 96.8252 62.0519 96.7469 61.9933 96.6521C61.9087 96.5087 61.8832 96.3381 61.922 96.1762C61.9609 96.0144 62.0611 95.8739 62.2015 95.7845L65.377 93.8237C65.4477 93.7756 65.5274 93.7424 65.6113 93.726C65.6951 93.7097 65.7815 93.7105 65.865 93.7285C65.9486 93.7465 66.0276 93.7812 66.0973 93.8306C66.1671 93.88 66.2261 93.943 66.2707 94.0159C66.3154 94.0888 66.3448 94.1699 66.3571 94.2545C66.3695 94.3391 66.3646 94.4253 66.3427 94.5079C66.3208 94.5905 66.2824 94.6678 66.2297 94.7351C66.1771 94.8024 66.1113 94.8583 66.0364 94.8995L62.8783 96.8083C62.787 96.8929 62.6719 96.9474 62.5485 96.9645Z" fill="black"/>
<path d="M77.1074 93.1991C76.188 93.2009 75.3025 92.8517 74.6318 92.2229C73.961 91.594 73.5556 90.7329 73.4981 89.8153L73.3072 86.796C73.2873 86.5682 73.3138 86.3387 73.3849 86.1215C73.4561 85.9042 73.5705 85.7035 73.7213 85.5317C73.8721 85.3598 74.0561 85.2202 74.2623 85.1214C74.4685 85.0226 74.6926 84.9665 74.921 84.9566L81.5844 84.5228C81.8138 84.5063 82.0441 84.5356 82.2621 84.6089C82.4801 84.6822 82.6812 84.7981 82.854 84.9499C83.0267 85.1017 83.1676 85.2863 83.2684 85.493C83.3692 85.6997 83.4279 85.9243 83.4411 86.1539L83.632 89.1733C83.6601 89.6539 83.5921 90.1353 83.4322 90.5894C83.2723 91.0435 83.0236 91.4611 82.7005 91.8181C82.3775 92.1751 81.9866 92.4642 81.5507 92.6685C81.1148 92.8728 80.6425 92.9883 80.1615 93.0082L77.2463 93.1991H77.1074ZM81.7058 85.7895L75.0078 86.206C74.8802 86.2212 74.7628 86.283 74.6781 86.3795C74.6368 86.4235 74.6048 86.4754 74.5839 86.532C74.5631 86.5887 74.5538 86.6489 74.5566 86.7092L74.7475 89.7285C74.7953 90.3493 75.0813 90.9276 75.5457 91.3424C75.7799 91.5531 76.0545 91.7141 76.3527 91.8155C76.651 91.9169 76.9668 91.9567 77.281 91.9323L80.1962 91.7415C80.5056 91.7238 80.8084 91.645 81.0871 91.5095C81.3658 91.374 81.6148 91.1846 81.8198 90.9522C82.0247 90.7198 82.1816 90.449 82.2812 90.1556C82.3808 89.8621 82.4212 89.5518 82.4 89.2427L82.2091 86.2233C82.2047 86.1617 82.1882 86.1016 82.1605 86.0464C82.1328 85.9913 82.0944 85.9421 82.0477 85.9018C82.0009 85.8615 81.9466 85.8308 81.888 85.8115C81.8293 85.7923 81.7674 85.7848 81.7058 85.7895Z" fill="#E2209E"/>
<path d="M73.7931 89.1385H73.6543C70.4088 88.4638 67.0654 88.4049 63.7981 88.9649C63.7171 88.9827 63.6335 88.9842 63.5519 88.9693C63.4704 88.9545 63.3927 88.9235 63.3232 88.8783C63.2538 88.8331 63.1941 88.7745 63.1475 88.7059C63.1009 88.6374 63.0684 88.5603 63.0519 88.4791C63.0316 88.398 63.0282 88.3136 63.042 88.2312C63.0558 88.1488 63.0865 88.0701 63.1321 88C63.1777 87.93 63.2373 87.8701 63.3071 87.8241C63.3769 87.7782 63.4554 87.7471 63.5378 87.7329C66.9871 87.1195 70.5224 87.1784 73.9494 87.9064C74.0306 87.9229 74.1077 87.9554 74.1762 88.002C74.2448 88.0486 74.3033 88.1083 74.3485 88.1778C74.3938 88.2472 74.4247 88.325 74.4396 88.4065C74.4545 88.488 74.453 88.5717 74.4352 88.6526C74.3997 88.7947 74.3166 88.9203 74.1998 89.0087C74.083 89.0971 73.9395 89.1429 73.7931 89.1385Z" fill="#E2209E"/>
<path d="M85.5408 95.0732H85.3326C85.1756 95.0179 85.0461 94.9037 84.9717 94.7548C84.8972 94.6058 84.8835 94.4338 84.9335 94.275C86.4605 89.7286 84.6038 87.9239 84.5343 87.8372C84.4739 87.7804 84.4258 87.7118 84.3929 87.6357C84.36 87.5596 84.343 87.4776 84.343 87.3947C84.343 87.3118 84.36 87.2297 84.3929 87.1536C84.4258 87.0775 84.4739 87.009 84.5343 86.9522C84.5924 86.894 84.6613 86.8477 84.7373 86.8162C84.8132 86.7847 84.8946 86.7684 84.9768 86.7684C85.0591 86.7684 85.1405 86.7847 85.2164 86.8162C85.2924 86.8477 85.3613 86.894 85.4193 86.9522C85.5235 87.0563 87.9702 89.3468 86.1655 94.7261C86.1094 94.8409 86.0194 94.9357 85.9077 94.9978C85.796 95.0599 85.6679 95.0862 85.5408 95.0732Z" fill="black"/>
<path d="M89.7571 92.5571C88.9257 92.5583 88.1256 92.2403 87.5219 91.6688C86.9181 91.0973 86.5567 90.3159 86.5122 89.4857L86.2866 86.0152C86.2611 85.5901 86.4045 85.1722 86.6857 84.8525C86.9775 84.5432 87.3727 84.3518 87.7963 84.3146L92.7071 84.0022C92.9205 83.9857 93.135 84.0119 93.3383 84.0791C93.5415 84.1463 93.7293 84.2532 93.8908 84.3937C94.0523 84.5342 94.1842 84.7054 94.2789 84.8974C94.3736 85.0894 94.4292 85.2983 94.4423 85.5119L94.6506 88.9825C94.6812 89.4102 94.6267 89.8397 94.4903 90.2463C94.3539 90.6528 94.1383 91.0283 93.856 91.351C93.5736 91.6737 93.23 91.9373 92.8452 92.1264C92.4603 92.3155 92.0419 92.4266 91.6139 92.453L89.9827 92.5571H89.7571ZM92.8112 85.2343L87.8657 85.5466C87.8214 85.5486 87.7781 85.5606 87.739 85.5816C87.7 85.6026 87.6661 85.6322 87.6401 85.6681C87.6043 85.6964 87.5772 85.7342 87.5618 85.7771C87.5465 85.8201 87.5436 85.8665 87.5534 85.911L87.7789 89.3816C87.7932 89.6439 87.8605 89.9007 87.9768 90.1363C88.0932 90.3719 88.2561 90.5815 88.4557 90.7524C88.6497 90.9277 88.8776 91.0613 89.1254 91.1449C89.3731 91.2285 89.6354 91.2603 89.8959 91.2383L91.5097 91.1342C91.772 91.1187 92.0286 91.0516 92.2648 90.9367C92.501 90.8219 92.7123 90.6615 92.8864 90.4648C93.0605 90.2681 93.1941 90.039 93.2794 89.7906C93.3648 89.5421 93.4002 89.2793 93.3838 89.0171L93.1582 85.5466C93.1513 85.469 93.1184 85.396 93.0649 85.3393C93.0113 85.2827 92.9403 85.2457 92.8632 85.2343H92.8112Z" fill="#E2209E"/>
<path d="M84.5515 146.558V169.117C84.5561 169.698 84.7903 170.254 85.2031 170.664C85.6159 171.073 86.1738 171.303 86.7553 171.303H109.314C109.894 171.303 110.45 171.073 110.86 170.663C111.27 170.253 111.5 169.696 111.5 169.117V146.558C111.5 145.978 111.27 145.422 110.86 145.012C110.45 144.602 109.894 144.372 109.314 144.372H86.7553C86.1738 144.372 85.6159 144.602 85.2031 145.011C84.7903 145.421 84.5561 145.977 84.5515 146.558Z" fill="#5E1DBB"/>
<path d="M86.5469 146.558V169.117C86.5514 169.695 86.7832 170.249 87.1923 170.658C87.6014 171.067 88.1548 171.298 88.7333 171.303H111.292C111.872 171.303 112.428 171.073 112.838 170.663C113.248 170.253 113.478 169.696 113.478 169.117V146.558C113.478 145.978 113.248 145.422 112.838 145.012C112.428 144.602 111.872 144.372 111.292 144.372H88.7333C88.1548 144.376 87.6014 144.608 87.1923 145.017C86.7832 145.426 86.5514 145.98 86.5469 146.558Z" fill="white"/>
<path d="M94.3209 154.714C96.391 154.714 98.0691 153.036 98.0691 150.966C98.0691 148.896 96.391 147.218 94.3209 147.218C92.2509 147.218 90.5728 148.896 90.5728 150.966C90.5728 153.036 92.2509 154.714 94.3209 154.714Z" fill="#7E59D8"/>
<path d="M86.5469 162.124V169.186C86.5514 169.765 86.7832 170.318 87.1923 170.727C87.6014 171.136 88.1548 171.368 88.7333 171.373H111.292C111.872 171.373 112.428 171.142 112.838 170.732C113.248 170.322 113.478 169.766 113.478 169.186V162.245C110.008 160.51 103.865 157.768 99.9778 158.427C94.2341 159.417 94.2341 163.633 92.4815 164.015C90.4054 163.748 88.3948 163.107 86.5469 162.124Z" fill="#E2209E"/>
<path d="M82.5733 89.3469C82.4292 89.3577 82.2859 89.3184 82.1677 89.2354C82.0494 89.1525 81.9635 89.0312 81.9247 88.8921C81.8858 88.753 81.8963 88.6047 81.9545 88.4725C82.0126 88.3403 82.1148 88.2323 82.2436 88.1669C82.3651 88.1669 85.5753 86.154 87.4494 87.681C87.5828 87.7846 87.6697 87.9369 87.6909 88.1045C87.712 88.2721 87.6657 88.4412 87.5621 88.5747C87.4586 88.7082 87.3063 88.795 87.1387 88.8162C86.9711 88.8373 86.802 88.791 86.6685 88.6875C85.6447 87.8719 83.5624 88.8263 82.8509 89.2601C82.7646 89.3062 82.6704 89.3356 82.5733 89.3469Z" fill="#E2209E"/>
<path d="M69.4895 167.433C69.4895 167.433 78.4087 162.835 84.2565 162.228C90.1043 161.62 92.9328 167.433 92.9328 167.433C96.5499 168.516 100.254 169.282 104.004 169.724C109.852 170.383 114.415 171.043 114.415 173.021C114.415 174.999 109.8 176.301 109.8 176.301C109.8 176.301 117.192 177.29 114.415 180.24C112.245 182.208 109.593 183.567 106.728 184.179C106.728 184.179 112.871 185.914 104.576 188.777C96.2819 191.64 78.027 192.386 68.8475 185.497C59.668 178.608 69.4895 167.433 69.4895 167.433Z" fill="#FD8753"/>
<path d="M46.6882 116.799C46.6882 116.799 -5.5084 140.867 0.478239 170.175C6.46488 199.484 75.5109 195.284 75.5109 195.284V157.872L50.6446 156.137L46.6882 116.799Z" fill="#263238"/>
<path d="M75.5107 158.514H75.3718C65.6304 156.442 55.6926 155.436 45.7336 155.512C45.6516 155.514 45.5699 155.5 45.4932 155.471C45.4165 155.442 45.3463 155.398 45.2867 155.341C45.2271 155.285 45.1792 155.217 45.1457 155.143C45.1122 155.068 45.0938 154.987 45.0916 154.905C45.0868 154.737 45.1476 154.575 45.2611 154.451C45.3745 154.328 45.5316 154.254 45.6989 154.245C55.7625 154.179 65.804 155.197 75.6495 157.282C75.7307 157.299 75.8078 157.331 75.8763 157.378C75.9449 157.424 76.0035 157.484 76.0487 157.553C76.0939 157.623 76.1248 157.701 76.1397 157.782C76.1546 157.864 76.1531 157.947 76.1353 158.028C76.1004 158.167 76.02 158.291 75.9068 158.379C75.7935 158.467 75.6541 158.515 75.5107 158.514Z" fill="#5E1DBB"/>
<path d="M80.1438 120.495C77.7644 120.57 75.3947 120.158 73.1805 119.283C70.9662 118.409 68.9543 117.091 67.2682 115.41C67.1988 115.353 67.1425 115.281 67.1027 115.2C67.063 115.119 67.0407 115.03 67.0375 114.94C67.0343 114.85 67.0501 114.76 67.084 114.676C67.1178 114.593 67.1689 114.517 67.234 114.454C67.299 114.392 67.3765 114.344 67.4614 114.313C67.5463 114.282 67.6367 114.27 67.7267 114.277C67.8168 114.283 67.9044 114.309 67.9838 114.352C68.0633 114.395 68.1328 114.454 68.1879 114.525C75.3719 121.918 86.1999 118.412 86.304 118.378C86.3836 118.347 86.4686 118.333 86.5537 118.337C86.6389 118.34 86.7226 118.36 86.7996 118.397C86.8766 118.433 86.9455 118.485 87.0021 118.549C87.0586 118.613 87.1016 118.687 87.1286 118.768C87.1555 118.849 87.1658 118.934 87.1589 119.019C87.1519 119.104 87.1278 119.187 87.0881 119.262C87.0483 119.338 86.9937 119.404 86.9275 119.458C86.8614 119.512 86.785 119.552 86.7031 119.575C84.5721 120.195 82.363 120.504 80.1438 120.495Z" fill="#5E1DBB"/>
<path d="M137.546 138.628C137.351 138.637 137.158 138.597 136.982 138.512C136.806 138.427 136.654 138.3 136.54 138.142C135.256 136.407 138.171 129.588 139.091 127.523C139.147 127.395 139.244 127.29 139.366 127.224C139.489 127.158 139.63 127.135 139.767 127.158C139.907 127.183 140.034 127.252 140.131 127.356C140.228 127.459 140.289 127.59 140.305 127.731C140.496 130.178 140.861 138.142 137.772 138.628H137.546ZM139.143 130.715C137.841 134.064 137.147 136.91 137.546 137.396C138.657 137.223 139.125 133.96 139.143 130.715Z" fill="#5E1DBB"/>
<path d="M92.8638 168.058H92.7249L85.6798 166.479C85.5176 166.438 85.3779 166.335 85.2904 166.193C85.2029 166.05 85.1745 165.879 85.2113 165.716C85.2278 165.634 85.2602 165.557 85.3068 165.489C85.3534 165.42 85.4131 165.362 85.4826 165.316C85.552 165.271 85.6298 165.24 85.7113 165.225C85.7928 165.21 85.8765 165.212 85.9574 165.23L93.0026 166.809C93.168 166.846 93.3119 166.947 93.4029 167.09C93.4939 167.233 93.5247 167.407 93.4884 167.572C93.4564 167.713 93.3767 167.838 93.2628 167.927C93.149 168.015 93.008 168.062 92.8638 168.058Z" fill="black"/>
<path d="M104.715 177.307C100.912 177.292 97.1241 176.815 93.4361 175.884C93.2933 175.825 93.1765 175.717 93.1072 175.579C93.0378 175.441 93.0206 175.283 93.0585 175.133C93.0965 174.983 93.1871 174.852 93.3139 174.764C93.4406 174.676 93.5948 174.636 93.7484 174.652C98.9321 176.045 104.341 176.393 109.661 175.676C109.816 175.667 109.969 175.714 110.092 175.81C110.215 175.905 110.299 176.042 110.329 176.194C110.359 176.347 110.332 176.505 110.254 176.64C110.175 176.774 110.051 176.876 109.904 176.925C108.188 177.198 106.452 177.326 104.715 177.307Z" fill="black"/>
<path d="M100.672 185.428C97.8579 185.528 95.0624 184.932 92.5338 183.693C92.4596 183.653 92.3943 183.599 92.3417 183.533C92.289 183.467 92.2502 183.392 92.2275 183.311C92.2048 183.23 92.1987 183.145 92.2096 183.062C92.2205 182.978 92.2481 182.898 92.2908 182.825C92.3776 182.682 92.5156 182.578 92.6767 182.532C92.8378 182.487 93.01 182.505 93.1585 182.582C98.156 185.393 106.485 183.589 106.572 183.571C106.732 183.549 106.894 183.588 107.026 183.68C107.159 183.772 107.252 183.911 107.287 184.068C107.322 184.226 107.296 184.39 107.215 184.53C107.134 184.669 107.004 184.773 106.85 184.821C104.815 185.22 102.746 185.424 100.672 185.428Z" fill="black"/>
<path d="M200.345 94.917C196.198 94.917 192.936 86.1193 192.936 74.9095C192.936 63.6997 196.198 54.9193 200.345 54.9193C204.493 54.9193 207.755 63.6997 207.755 74.9095C207.755 86.1193 204.493 94.917 200.345 94.917ZM200.345 56.186C197.378 56.186 194.203 63.7171 194.203 74.9095C194.203 86.1019 197.378 93.6503 200.345 93.6503C203.313 93.6503 206.488 86.1193 206.488 74.9095C206.488 63.6997 203.313 56.186 200.345 56.186Z" fill="#07CBF5"/>
<path d="M198.176 89.0691C198.096 89.0703 198.016 89.0555 197.942 89.0258C197.867 88.996 197.8 88.9518 197.742 88.8956C197.552 88.7221 196.007 86.9868 195.33 80.9308C195.315 80.7638 195.364 80.5973 195.467 80.4652C195.57 80.333 195.72 80.2451 195.886 80.2193C196.053 80.2048 196.22 80.2566 196.35 80.3637C196.48 80.4708 196.562 80.6246 196.58 80.792C197.204 86.3969 198.627 87.9933 198.645 88.0106C198.758 88.13 198.822 88.2884 198.822 88.4531C198.822 88.6178 198.758 88.7763 198.645 88.8956C198.516 89.0111 198.349 89.0732 198.176 89.0691Z" fill="#5E1DBB"/>
</svg>
