<svg width="379" height="374" viewBox="0 0 379 374" fill="none" xmlns="http://www.w3.org/2000/svg">
<path d="M185.551 252C221.45 252 250.551 222.899 250.551 187C250.551 151.101 221.45 122 185.551 122C149.653 122 120.551 151.101 120.551 187C120.551 222.899 149.653 252 185.551 252Z" fill="url(#paint0_linear_727_4746)"/>
<g filter="url(#filter0_ddd_727_4746)">
<path d="M168.684 172.175C168.011 172.175 167.393 171.777 167.146 171.187C166.892 170.582 167.073 169.867 167.592 169.438C168.119 169.003 168.905 168.929 169.511 169.26C170.118 169.592 170.447 170.268 170.308 170.919C170.155 171.64 169.464 172.175 168.684 172.175Z" fill="#FAFAFA"/>
<path d="M198.944 204.259C198.252 204.259 197.62 203.839 197.386 203.226C197.158 202.63 197.344 201.939 197.852 201.522C198.39 201.08 199.18 201.015 199.794 201.358C200.367 201.678 200.685 202.321 200.579 202.941C200.451 203.689 199.748 204.259 198.944 204.259Z" fill="#FAFAFA"/>
<path d="M231.396 158.615C231.171 158.043 230.613 157.646 229.967 157.601L220.941 156.964L220.266 148.446C220.217 147.837 219.797 147.31 219.191 147.098C218.584 146.885 217.901 147.026 217.444 147.458L210.229 154.266C209.033 155.394 208.342 156.893 208.28 158.487C208.279 158.515 208.278 158.543 208.279 158.571L208.377 163.788C201.906 158.85 193.674 155.888 184.722 155.888C163.946 155.888 147.043 171.839 147.043 191.444C147.043 211.05 163.946 227 184.722 227C205.498 227 222.401 211.05 222.401 191.444C222.401 182.861 219.162 174.979 213.776 168.829L219.24 168.912C219.249 168.913 219.258 168.913 219.267 168.913C219.287 168.913 219.307 168.912 219.327 168.912C221.016 168.853 222.604 168.2 223.799 167.072L231.014 160.264C231.472 159.832 231.621 159.188 231.396 158.615ZM212.57 156.476L217.233 152.076L217.688 157.824L211.684 163.5L211.591 158.562C211.631 157.774 211.978 157.035 212.57 156.476ZM184.722 223.875C165.772 223.875 150.354 209.326 150.354 191.444C150.354 173.562 165.772 159.013 184.722 159.013C193.525 159.013 201.566 162.153 207.652 167.308L203.818 170.927C198.717 166.694 192.032 164.124 184.722 164.124C181.355 164.124 178.054 164.668 174.91 165.74C174.05 166.033 173.605 166.928 173.915 167.74C174.226 168.552 175.174 168.972 176.035 168.679C178.817 167.73 181.74 167.249 184.722 167.249C191.119 167.249 196.976 169.471 201.472 173.14L197.631 176.765C194.126 174.016 189.625 172.36 184.722 172.36C173.571 172.36 164.499 180.921 164.499 191.444C164.499 201.967 173.571 210.527 184.722 210.527C187.909 210.527 191.086 209.806 193.911 208.442C194.725 208.048 195.047 207.107 194.63 206.339C194.213 205.571 193.215 205.267 192.402 205.66C190.009 206.816 187.425 207.403 184.722 207.403C175.397 207.403 167.81 200.244 167.81 191.444C167.81 182.644 175.397 175.486 184.722 175.486C188.712 175.486 192.382 176.797 195.278 178.986L191.415 182.63C189.529 181.351 187.217 180.597 184.722 180.597C178.384 180.597 173.227 185.463 173.227 191.444C173.227 197.425 178.384 202.291 184.722 202.291C191.06 202.291 196.217 197.425 196.217 191.444C196.217 188.942 195.315 186.636 193.801 184.798L197.649 181.167C200.134 183.946 201.634 187.532 201.634 191.444C201.634 193.16 201.346 194.849 200.777 196.463C200.489 197.282 200.959 198.167 201.826 198.439C202.694 198.711 203.631 198.268 203.92 197.449C204.6 195.516 204.945 193.495 204.945 191.444C204.945 186.67 203.078 182.301 199.998 178.951L203.833 175.331C207.891 179.613 210.362 185.261 210.362 191.444C210.362 204.785 198.86 215.638 184.722 215.638C170.585 215.638 159.082 204.785 159.082 191.444C159.082 186.289 160.784 181.366 164.004 177.206C164.543 176.509 164.382 175.532 163.643 175.023C162.905 174.514 161.869 174.666 161.33 175.363C157.693 180.062 155.771 185.622 155.771 191.444C155.771 206.508 168.758 218.763 184.722 218.763C200.686 218.763 213.673 206.508 213.673 191.444C213.673 184.4 210.833 177.97 206.177 173.12L210.008 169.504C215.643 175.283 219.089 182.991 219.089 191.444C219.09 209.326 203.672 223.875 184.722 223.875ZM192.905 191.444C192.905 195.702 189.234 199.166 184.722 199.166C180.209 199.166 176.538 195.702 176.538 191.444C176.538 187.186 180.209 183.722 184.722 183.722C186.301 183.722 187.778 184.147 189.03 184.881L183.748 189.865C183.102 190.475 183.102 191.464 183.748 192.074C184.072 192.379 184.496 192.532 184.919 192.532C185.343 192.532 185.767 192.379 186.09 192.074L191.434 187.031C192.361 188.283 192.905 189.805 192.905 191.444ZM221.458 164.862C220.866 165.422 220.081 165.749 219.245 165.787L214.032 165.707L217.213 162.706C217.248 162.672 217.281 162.637 217.313 162.602L220.031 160.033L226.12 160.463L221.458 164.862Z" fill="#FAFAFA"/>
</g>
<defs>
<filter id="filter0_ddd_727_4746" x="0.162998" y="0.119995" width="378.216" height="373.76" filterUnits="userSpaceOnUse" color-interpolation-filters="sRGB">
<feFlood flood-opacity="0" result="BackgroundImageFix"/>
<feColorMatrix in="SourceAlpha" type="matrix" values="0 0 0 0 0 0 0 0 0 0 0 0 0 0 0 0 0 0 127 0" result="hardAlpha"/>
<feOffset/>
<feGaussianBlur stdDeviation="3.06"/>
<feColorMatrix type="matrix" values="0 0 0 0 0.0823529 0 0 0 0 0.305882 0 0 0 0 0.380392 0 0 0 1 0"/>
<feBlend mode="normal" in2="BackgroundImageFix" result="effect1_dropShadow_727_4746"/>
<feColorMatrix in="SourceAlpha" type="matrix" values="0 0 0 0 0 0 0 0 0 0 0 0 0 0 0 0 0 0 127 0" result="hardAlpha"/>
<feOffset/>
<feGaussianBlur stdDeviation="6.12"/>
<feColorMatrix type="matrix" values="0 0 0 0 0.0823529 0 0 0 0 0.305882 0 0 0 0 0.380392 0 0 0 1 0"/>
<feBlend mode="normal" in2="effect1_dropShadow_727_4746" result="effect2_dropShadow_727_4746"/>
<feColorMatrix in="SourceAlpha" type="matrix" values="0 0 0 0 0 0 0 0 0 0 0 0 0 0 0 0 0 0 127 0" result="hardAlpha"/>
<feOffset/>
<feGaussianBlur stdDeviation="73.44"/>
<feColorMatrix type="matrix" values="0 0 0 0 0.0823529 0 0 0 0 0.305882 0 0 0 0 0.380392 0 0 0 1 0"/>
<feBlend mode="normal" in2="effect2_dropShadow_727_4746" result="effect3_dropShadow_727_4746"/>
<feBlend mode="normal" in="SourceGraphic" in2="effect3_dropShadow_727_4746" result="shape"/>
</filter>
<linearGradient id="paint0_linear_727_4746" x1="223.771" y1="1455.02" x2="353.771" y2="1455.02" gradientUnits="userSpaceOnUse">
<stop stop-color="#0F2344"/>
<stop offset="1" stop-color="#0E0D12"/>
</linearGradient>
</defs>
</svg>
