<svg width="355" height="387" viewBox="0 0 355 387" fill="none" xmlns="http://www.w3.org/2000/svg">
<path d="M175.551 257C211.45 257 240.551 227.899 240.551 192C240.551 156.101 211.45 127 175.551 127C139.653 127 110.551 156.101 110.551 192C110.551 227.899 139.653 257 175.551 257Z" fill="url(#paint0_linear_727_4723)"/>
<g filter="url(#filter0_ddd_727_4723)">
<path d="M206.875 207.654C205.541 198.215 200.175 189.521 192.145 183.758V177.276C192.145 166.058 187.515 155.511 179.11 147.578L178.963 147.44C178.342 146.853 177.337 146.853 176.716 147.44L176.57 147.578C168.164 155.51 163.534 166.058 163.534 177.276V183.758C155.504 189.521 150.138 198.215 148.804 207.654L147.654 215.802C147.553 216.513 148 217.193 148.72 217.422C148.889 217.475 149.06 217.5 149.229 217.5C149.787 217.5 150.321 217.221 150.608 216.744L152.235 214.058C154.606 210.143 158.842 207.581 163.534 207.099V208.5C163.534 209.328 164.246 210 165.124 210H166.713V214.5C166.713 215.328 167.425 216 168.303 216H176.25V222H179.429V216H187.377C188.254 216 188.966 215.328 188.966 214.5V210H190.556C191.433 210 192.145 209.328 192.145 208.5V207.101C196.837 207.581 201.073 210.144 203.445 214.059L205.071 216.746C205.36 217.221 205.893 217.5 206.451 217.5C206.619 217.5 206.791 217.475 206.959 217.421C207.679 217.191 208.126 216.513 208.026 215.801L206.875 207.654ZM177.84 150.653C181.179 154.022 183.808 157.86 185.676 162H170.003C171.871 157.86 174.5 154.022 177.84 150.653ZM151.732 209.627L151.955 208.05C153.066 200.181 157.253 192.896 163.534 187.664V204.08C158.984 204.464 154.762 206.46 151.732 209.627ZM185.787 213H169.892V210H185.787V213ZM188.966 207H166.713V177.276C166.713 173.04 167.432 168.909 168.8 165H186.881C188.248 168.909 188.966 173.04 188.966 177.276V207ZM192.145 204.081V187.664C198.427 192.897 202.612 200.183 203.725 208.05L203.947 209.627C200.918 206.46 196.696 204.464 192.145 204.081Z" fill="#FAFAFA"/>
<path d="M177.84 174C172.58 174 168.303 178.037 168.303 183C168.303 187.964 172.58 192 177.84 192C183.099 192 187.376 187.964 187.376 183C187.376 178.037 183.099 174 177.84 174ZM177.84 189C174.333 189 171.482 186.309 171.482 183C171.482 179.691 174.333 177 177.84 177C181.346 177 184.198 179.691 184.198 183C184.198 186.309 181.346 189 177.84 189Z" fill="#FAFAFA"/>
<path d="M185.52 218.168L182.875 219.831L184.565 222.224C185.364 223.356 185.787 224.673 185.787 226.034C185.787 227.868 185.03 229.593 183.655 230.891L177.84 236.379L172.024 230.891C170.649 229.593 169.892 227.868 169.892 226.034C169.892 224.673 170.315 223.356 171.114 222.224L172.804 219.831L170.159 218.168L168.469 220.56C167.32 222.186 166.713 224.079 166.713 226.034C166.713 228.669 167.8 231.149 169.776 233.012L176.716 239.561C177.026 239.853 177.433 240 177.84 240C178.246 240 178.653 239.853 178.963 239.561L185.903 233.012C187.879 231.149 188.966 228.669 188.966 226.034C188.966 224.079 188.359 222.186 187.21 220.56L185.52 218.168Z" fill="#FAFAFA"/>
</g>
<defs>
<filter id="filter0_ddd_727_4723" x="0.759644" y="0.119995" width="354.16" height="386.76" filterUnits="userSpaceOnUse" color-interpolation-filters="sRGB">
<feFlood flood-opacity="0" result="BackgroundImageFix"/>
<feColorMatrix in="SourceAlpha" type="matrix" values="0 0 0 0 0 0 0 0 0 0 0 0 0 0 0 0 0 0 127 0" result="hardAlpha"/>
<feOffset/>
<feGaussianBlur stdDeviation="3.06"/>
<feColorMatrix type="matrix" values="0 0 0 0 0.0823529 0 0 0 0 0.305882 0 0 0 0 0.380392 0 0 0 1 0"/>
<feBlend mode="normal" in2="BackgroundImageFix" result="effect1_dropShadow_727_4723"/>
<feColorMatrix in="SourceAlpha" type="matrix" values="0 0 0 0 0 0 0 0 0 0 0 0 0 0 0 0 0 0 127 0" result="hardAlpha"/>
<feOffset/>
<feGaussianBlur stdDeviation="6.12"/>
<feColorMatrix type="matrix" values="0 0 0 0 0.0823529 0 0 0 0 0.305882 0 0 0 0 0.380392 0 0 0 1 0"/>
<feBlend mode="normal" in2="effect1_dropShadow_727_4723" result="effect2_dropShadow_727_4723"/>
<feColorMatrix in="SourceAlpha" type="matrix" values="0 0 0 0 0 0 0 0 0 0 0 0 0 0 0 0 0 0 127 0" result="hardAlpha"/>
<feOffset/>
<feGaussianBlur stdDeviation="73.44"/>
<feColorMatrix type="matrix" values="0 0 0 0 0.0823529 0 0 0 0 0.305882 0 0 0 0 0.380392 0 0 0 1 0"/>
<feBlend mode="normal" in2="effect2_dropShadow_727_4723" result="effect3_dropShadow_727_4723"/>
<feBlend mode="normal" in="SourceGraphic" in2="effect3_dropShadow_727_4723" result="shape"/>
</filter>
<linearGradient id="paint0_linear_727_4723" x1="213.771" y1="1460.02" x2="343.771" y2="1460.02" gradientUnits="userSpaceOnUse">
<stop stop-color="#0F2344"/>
<stop offset="1" stop-color="#0E0D12"/>
</linearGradient>
</defs>
</svg>
