<svg width="367" height="362" viewBox="0 0 367 362" fill="none" xmlns="http://www.w3.org/2000/svg">
<path d="M179.625 246C215.524 246 244.625 216.899 244.625 181C244.625 145.101 215.524 116 179.625 116C143.727 116 114.625 145.101 114.625 181C114.625 216.899 143.727 246 179.625 246Z" fill="url(#paint0_linear_727_4684)"/>
<g filter="url(#filter0_dddddd_727_4684)">
<path d="M188.977 179.372C188.697 178.527 188.205 177.76 187.542 177.134C186.879 176.509 186.066 176.044 185.171 175.78H185.09C184.557 175.619 184.002 175.534 183.442 175.528C182.295 175.528 181.173 175.85 180.219 176.451C179.265 177.053 178.522 177.908 178.083 178.908C177.644 179.908 177.529 181.009 177.753 182.071C177.977 183.133 178.529 184.108 179.34 184.874C180.152 185.64 181.185 186.161 182.311 186.372C183.436 186.584 184.602 186.475 185.662 186.061C186.722 185.646 187.629 184.945 188.266 184.045C188.903 183.144 189.244 182.086 189.244 181.003C189.242 180.481 189.164 179.961 189.012 179.459L188.977 179.372ZM184.939 178.058L185.16 178.156L185.345 178.266C185.542 178.382 185.725 178.517 185.891 178.671C186.06 178.828 186.208 179.005 186.331 179.196C186.377 179.251 186.416 179.309 186.447 179.372L186.552 179.591C186.342 179.788 186.059 179.901 185.763 179.908C185.455 179.908 185.16 179.793 184.942 179.587C184.725 179.382 184.603 179.104 184.603 178.813C184.607 178.53 184.728 178.259 184.939 178.058ZM183.442 184.288C182.621 184.271 181.832 183.981 181.216 183.468C180.6 182.956 180.195 182.254 180.075 181.487C179.954 180.72 180.124 179.938 180.556 179.278C180.987 178.618 181.652 178.124 182.433 177.883C182.33 178.183 182.279 178.497 182.282 178.813C182.282 179.684 182.649 180.52 183.302 181.136C183.954 181.752 184.84 182.098 185.763 182.098C186.098 182.101 186.431 182.052 186.749 181.956C186.534 182.626 186.097 183.215 185.502 183.634C184.907 184.054 184.185 184.283 183.442 184.288Z" fill="#FAFAFA"/>
</g>
<g filter="url(#filter1_dddddd_727_4684)">
<path d="M183.442 172.244C173.928 172.244 168.742 180.094 168.533 180.434C168.431 180.6 168.378 180.789 168.378 180.981C168.378 181.173 168.431 181.362 168.533 181.529C168.742 181.912 173.928 189.762 183.442 189.762C192.956 189.762 198.142 181.912 198.351 181.572C198.453 181.406 198.507 181.217 198.507 181.025C198.507 180.833 198.453 180.644 198.351 180.477C198.142 180.094 192.956 172.244 183.442 172.244ZM183.442 187.572C176.643 187.572 172.246 182.7 170.923 181.003C172.246 179.306 176.643 174.434 183.442 174.434C190.241 174.434 194.638 179.306 195.961 181.003C194.638 182.7 190.241 187.572 183.442 187.572Z" fill="#FAFAFA"/>
</g>
<g filter="url(#filter2_dddddd_727_4684)">
<path d="M204.164 180.445C203.839 179.908 196.135 167.864 183.442 167.864C170.749 167.864 163.045 179.908 162.72 180.445L164.716 181.54C164.786 181.441 172.083 170.054 183.442 170.054C194.801 170.054 202.099 181.441 202.168 181.561L204.164 180.445Z" fill="#FAFAFA"/>
</g>
<g filter="url(#filter3_ddd_727_4684)">
<path d="M215.442 150.805C210.951 146.568 203.363 145.845 194.093 148.758C190.382 149.963 186.813 151.526 183.442 153.422C175.959 149.251 168.545 147.061 162.558 147.061C157.917 147.061 154.135 148.375 151.501 150.86C148.867 153.346 147.475 156.915 147.475 161.295C147.475 166.09 149.145 171.751 152.301 177.718L154.309 176.623C151.315 171.017 149.795 165.674 149.795 161.295C149.795 157.495 150.955 154.506 153.148 152.415C155.341 150.324 158.474 149.251 162.558 149.251C167.849 149.251 174.427 151.167 181.122 154.725C176.009 157.828 171.271 161.448 166.99 165.521C149.389 182.164 142.393 202.66 151.443 211.201C154.123 213.73 157.917 214.945 162.558 214.945C167.582 214.945 173.522 213.423 179.88 210.401L178.801 208.496C167.582 213.828 157.975 214.255 153.09 209.591C149.25 206.033 148.635 199.671 151.478 191.755C154.367 183.576 160.469 174.806 168.672 167.065C173.125 162.839 178.081 159.113 183.442 155.962C188.808 159.107 193.765 162.833 198.212 167.065C202.69 171.284 206.634 175.98 209.965 181.058C206.619 186.092 202.676 190.75 198.212 194.941C196.564 196.496 194.847 197.974 193.107 199.387L193.884 194.295L191.564 193.989L190.404 201.653C190.379 201.809 190.39 201.967 190.436 202.118C190.482 202.27 190.562 202.41 190.67 202.529C190.782 202.649 190.919 202.744 191.074 202.808C191.228 202.872 191.395 202.904 191.564 202.901H199.685V200.711H195.045C196.692 199.365 198.316 197.963 199.871 196.485C204.185 192.466 208.014 188.008 211.288 183.193C215.035 189.489 217.182 195.675 217.182 200.821C217.182 204.62 216.022 207.609 213.829 209.701C211.636 211.792 208.445 212.865 204.419 212.865C194.232 212.865 180.217 205.847 168.707 194.996C167.06 193.441 165.482 191.821 163.997 190.178L169.392 190.901L169.717 188.711L161.595 187.616C161.43 187.593 161.262 187.603 161.102 187.647C160.941 187.69 160.793 187.766 160.667 187.868C160.539 187.965 160.435 188.087 160.361 188.224C160.287 188.362 160.245 188.513 160.237 188.667V196.332H162.558V191.952C163.985 193.507 165.47 195.04 167.036 196.507C179.138 207.905 193.443 215 204.384 215C209.025 215 212.808 213.686 215.442 211.201C218.075 208.715 219.468 205.102 219.468 200.766C219.468 194.876 217.008 187.945 212.657 180.959C220.233 168.663 221.788 156.795 215.442 150.805ZM199.848 165.521C195.561 161.446 190.815 157.825 185.693 154.725C188.605 153.166 191.666 151.868 194.836 150.849C203.224 148.21 209.919 148.747 213.794 152.371C219.27 157.528 217.89 167.864 211.288 178.879C207.997 174.05 204.161 169.571 199.848 165.521Z" fill="#FAFAFA"/>
</g>
<defs>
<filter id="filter0_dddddd_727_4684" x="136.254" y="134.141" width="94.3777" height="93.7243" filterUnits="userSpaceOnUse" color-interpolation-filters="sRGB">
<feFlood flood-opacity="0" result="BackgroundImageFix"/>
<feColorMatrix in="SourceAlpha" type="matrix" values="0 0 0 0 0 0 0 0 0 0 0 0 0 0 0 0 0 0 127 0" result="hardAlpha"/>
<feOffset/>
<feGaussianBlur stdDeviation="0.49271"/>
<feColorMatrix type="matrix" values="0 0 0 0 0.0823529 0 0 0 0 0.305882 0 0 0 0 0.380392 0 0 0 1 0"/>
<feBlend mode="normal" in2="BackgroundImageFix" result="effect1_dropShadow_727_4684"/>
<feColorMatrix in="SourceAlpha" type="matrix" values="0 0 0 0 0 0 0 0 0 0 0 0 0 0 0 0 0 0 127 0" result="hardAlpha"/>
<feOffset/>
<feGaussianBlur stdDeviation="0.985419"/>
<feColorMatrix type="matrix" values="0 0 0 0 0.0823529 0 0 0 0 0.305882 0 0 0 0 0.380392 0 0 0 1 0"/>
<feBlend mode="normal" in2="effect1_dropShadow_727_4684" result="effect2_dropShadow_727_4684"/>
<feColorMatrix in="SourceAlpha" type="matrix" values="0 0 0 0 0 0 0 0 0 0 0 0 0 0 0 0 0 0 127 0" result="hardAlpha"/>
<feOffset/>
<feGaussianBlur stdDeviation="3.44897"/>
<feColorMatrix type="matrix" values="0 0 0 0 0.0823529 0 0 0 0 0.305882 0 0 0 0 0.380392 0 0 0 1 0"/>
<feBlend mode="normal" in2="effect2_dropShadow_727_4684" result="effect3_dropShadow_727_4684"/>
<feColorMatrix in="SourceAlpha" type="matrix" values="0 0 0 0 0 0 0 0 0 0 0 0 0 0 0 0 0 0 127 0" result="hardAlpha"/>
<feOffset/>
<feGaussianBlur stdDeviation="6.89794"/>
<feColorMatrix type="matrix" values="0 0 0 0 0.0823529 0 0 0 0 0.305882 0 0 0 0 0.380392 0 0 0 1 0"/>
<feBlend mode="normal" in2="effect3_dropShadow_727_4684" result="effect4_dropShadow_727_4684"/>
<feColorMatrix in="SourceAlpha" type="matrix" values="0 0 0 0 0 0 0 0 0 0 0 0 0 0 0 0 0 0 127 0" result="hardAlpha"/>
<feOffset/>
<feGaussianBlur stdDeviation="11.825"/>
<feColorMatrix type="matrix" values="0 0 0 0 0.0823529 0 0 0 0 0.305882 0 0 0 0 0.380392 0 0 0 1 0"/>
<feBlend mode="normal" in2="effect4_dropShadow_727_4684" result="effect5_dropShadow_727_4684"/>
<feColorMatrix in="SourceAlpha" type="matrix" values="0 0 0 0 0 0 0 0 0 0 0 0 0 0 0 0 0 0 127 0" result="hardAlpha"/>
<feOffset/>
<feGaussianBlur stdDeviation="20.6938"/>
<feColorMatrix type="matrix" values="0 0 0 0 0.0823529 0 0 0 0 0.305882 0 0 0 0 0.380392 0 0 0 1 0"/>
<feBlend mode="normal" in2="effect5_dropShadow_727_4684" result="effect6_dropShadow_727_4684"/>
<feBlend mode="normal" in="SourceGraphic" in2="effect6_dropShadow_727_4684" result="shape"/>
</filter>
<filter id="filter1_dddddd_727_4684" x="60.9024" y="64.7686" width="245.079" height="232.469" filterUnits="userSpaceOnUse" color-interpolation-filters="sRGB">
<feFlood flood-opacity="0" result="BackgroundImageFix"/>
<feColorMatrix in="SourceAlpha" type="matrix" values="0 0 0 0 0 0 0 0 0 0 0 0 0 0 0 0 0 0 127 0" result="hardAlpha"/>
<feOffset/>
<feGaussianBlur stdDeviation="1.27947"/>
<feColorMatrix type="matrix" values="0 0 0 0 0.0823529 0 0 0 0 0.305882 0 0 0 0 0.380392 0 0 0 1 0"/>
<feBlend mode="normal" in2="BackgroundImageFix" result="effect1_dropShadow_727_4684"/>
<feColorMatrix in="SourceAlpha" type="matrix" values="0 0 0 0 0 0 0 0 0 0 0 0 0 0 0 0 0 0 127 0" result="hardAlpha"/>
<feOffset/>
<feGaussianBlur stdDeviation="2.55893"/>
<feColorMatrix type="matrix" values="0 0 0 0 0.0823529 0 0 0 0 0.305882 0 0 0 0 0.380392 0 0 0 1 0"/>
<feBlend mode="normal" in2="effect1_dropShadow_727_4684" result="effect2_dropShadow_727_4684"/>
<feColorMatrix in="SourceAlpha" type="matrix" values="0 0 0 0 0 0 0 0 0 0 0 0 0 0 0 0 0 0 127 0" result="hardAlpha"/>
<feOffset/>
<feGaussianBlur stdDeviation="8.95626"/>
<feColorMatrix type="matrix" values="0 0 0 0 0.0823529 0 0 0 0 0.305882 0 0 0 0 0.380392 0 0 0 1 0"/>
<feBlend mode="normal" in2="effect2_dropShadow_727_4684" result="effect3_dropShadow_727_4684"/>
<feColorMatrix in="SourceAlpha" type="matrix" values="0 0 0 0 0 0 0 0 0 0 0 0 0 0 0 0 0 0 127 0" result="hardAlpha"/>
<feOffset/>
<feGaussianBlur stdDeviation="17.9125"/>
<feColorMatrix type="matrix" values="0 0 0 0 0.0823529 0 0 0 0 0.305882 0 0 0 0 0.380392 0 0 0 1 0"/>
<feBlend mode="normal" in2="effect3_dropShadow_727_4684" result="effect4_dropShadow_727_4684"/>
<feColorMatrix in="SourceAlpha" type="matrix" values="0 0 0 0 0 0 0 0 0 0 0 0 0 0 0 0 0 0 127 0" result="hardAlpha"/>
<feOffset/>
<feGaussianBlur stdDeviation="30.7072"/>
<feColorMatrix type="matrix" values="0 0 0 0 0.0823529 0 0 0 0 0.305882 0 0 0 0 0.380392 0 0 0 1 0"/>
<feBlend mode="normal" in2="effect4_dropShadow_727_4684" result="effect5_dropShadow_727_4684"/>
<feColorMatrix in="SourceAlpha" type="matrix" values="0 0 0 0 0 0 0 0 0 0 0 0 0 0 0 0 0 0 127 0" result="hardAlpha"/>
<feOffset/>
<feGaussianBlur stdDeviation="53.7376"/>
<feColorMatrix type="matrix" values="0 0 0 0 0.0823529 0 0 0 0 0.305882 0 0 0 0 0.380392 0 0 0 1 0"/>
<feBlend mode="normal" in2="effect5_dropShadow_727_4684" result="effect6_dropShadow_727_4684"/>
<feBlend mode="normal" in="SourceGraphic" in2="effect6_dropShadow_727_4684" result="shape"/>
</filter>
<filter id="filter2_dddddd_727_4684" x="14.8838" y="20.0276" width="337.117" height="309.37" filterUnits="userSpaceOnUse" color-interpolation-filters="sRGB">
<feFlood flood-opacity="0" result="BackgroundImageFix"/>
<feColorMatrix in="SourceAlpha" type="matrix" values="0 0 0 0 0 0 0 0 0 0 0 0 0 0 0 0 0 0 127 0" result="hardAlpha"/>
<feOffset/>
<feGaussianBlur stdDeviation="1.75996"/>
<feColorMatrix type="matrix" values="0 0 0 0 0.0823529 0 0 0 0 0.305882 0 0 0 0 0.380392 0 0 0 1 0"/>
<feBlend mode="normal" in2="BackgroundImageFix" result="effect1_dropShadow_727_4684"/>
<feColorMatrix in="SourceAlpha" type="matrix" values="0 0 0 0 0 0 0 0 0 0 0 0 0 0 0 0 0 0 127 0" result="hardAlpha"/>
<feOffset/>
<feGaussianBlur stdDeviation="3.51992"/>
<feColorMatrix type="matrix" values="0 0 0 0 0.0823529 0 0 0 0 0.305882 0 0 0 0 0.380392 0 0 0 1 0"/>
<feBlend mode="normal" in2="effect1_dropShadow_727_4684" result="effect2_dropShadow_727_4684"/>
<feColorMatrix in="SourceAlpha" type="matrix" values="0 0 0 0 0 0 0 0 0 0 0 0 0 0 0 0 0 0 127 0" result="hardAlpha"/>
<feOffset/>
<feGaussianBlur stdDeviation="12.3197"/>
<feColorMatrix type="matrix" values="0 0 0 0 0.0823529 0 0 0 0 0.305882 0 0 0 0 0.380392 0 0 0 1 0"/>
<feBlend mode="normal" in2="effect2_dropShadow_727_4684" result="effect3_dropShadow_727_4684"/>
<feColorMatrix in="SourceAlpha" type="matrix" values="0 0 0 0 0 0 0 0 0 0 0 0 0 0 0 0 0 0 127 0" result="hardAlpha"/>
<feOffset/>
<feGaussianBlur stdDeviation="24.6394"/>
<feColorMatrix type="matrix" values="0 0 0 0 0.0823529 0 0 0 0 0.305882 0 0 0 0 0.380392 0 0 0 1 0"/>
<feBlend mode="normal" in2="effect3_dropShadow_727_4684" result="effect4_dropShadow_727_4684"/>
<feColorMatrix in="SourceAlpha" type="matrix" values="0 0 0 0 0 0 0 0 0 0 0 0 0 0 0 0 0 0 127 0" result="hardAlpha"/>
<feOffset/>
<feGaussianBlur stdDeviation="42.239"/>
<feColorMatrix type="matrix" values="0 0 0 0 0.0823529 0 0 0 0 0.305882 0 0 0 0 0.380392 0 0 0 1 0"/>
<feBlend mode="normal" in2="effect4_dropShadow_727_4684" result="effect5_dropShadow_727_4684"/>
<feColorMatrix in="SourceAlpha" type="matrix" values="0 0 0 0 0 0 0 0 0 0 0 0 0 0 0 0 0 0 127 0" result="hardAlpha"/>
<feOffset/>
<feGaussianBlur stdDeviation="73.9183"/>
<feColorMatrix type="matrix" values="0 0 0 0 0.0823529 0 0 0 0 0.305882 0 0 0 0 0.380392 0 0 0 1 0"/>
<feBlend mode="normal" in2="effect5_dropShadow_727_4684" result="effect6_dropShadow_727_4684"/>
<feBlend mode="normal" in="SourceGraphic" in2="effect6_dropShadow_727_4684" result="shape"/>
</filter>
<filter id="filter3_ddd_727_4684" x="0.594727" y="0.119995" width="365.753" height="361.76" filterUnits="userSpaceOnUse" color-interpolation-filters="sRGB">
<feFlood flood-opacity="0" result="BackgroundImageFix"/>
<feColorMatrix in="SourceAlpha" type="matrix" values="0 0 0 0 0 0 0 0 0 0 0 0 0 0 0 0 0 0 127 0" result="hardAlpha"/>
<feOffset/>
<feGaussianBlur stdDeviation="3.06"/>
<feColorMatrix type="matrix" values="0 0 0 0 0.0823529 0 0 0 0 0.305882 0 0 0 0 0.380392 0 0 0 1 0"/>
<feBlend mode="normal" in2="BackgroundImageFix" result="effect1_dropShadow_727_4684"/>
<feColorMatrix in="SourceAlpha" type="matrix" values="0 0 0 0 0 0 0 0 0 0 0 0 0 0 0 0 0 0 127 0" result="hardAlpha"/>
<feOffset/>
<feGaussianBlur stdDeviation="6.12"/>
<feColorMatrix type="matrix" values="0 0 0 0 0.0823529 0 0 0 0 0.305882 0 0 0 0 0.380392 0 0 0 1 0"/>
<feBlend mode="normal" in2="effect1_dropShadow_727_4684" result="effect2_dropShadow_727_4684"/>
<feColorMatrix in="SourceAlpha" type="matrix" values="0 0 0 0 0 0 0 0 0 0 0 0 0 0 0 0 0 0 127 0" result="hardAlpha"/>
<feOffset/>
<feGaussianBlur stdDeviation="73.44"/>
<feColorMatrix type="matrix" values="0 0 0 0 0.0823529 0 0 0 0 0.305882 0 0 0 0 0.380392 0 0 0 1 0"/>
<feBlend mode="normal" in2="effect2_dropShadow_727_4684" result="effect3_dropShadow_727_4684"/>
<feBlend mode="normal" in="SourceGraphic" in2="effect3_dropShadow_727_4684" result="shape"/>
</filter>
<linearGradient id="paint0_linear_727_4684" x1="217.845" y1="1449.02" x2="347.845" y2="1449.02" gradientUnits="userSpaceOnUse">
<stop stop-color="#0F2344"/>
<stop offset="1" stop-color="#0E0D12"/>
</linearGradient>
</defs>
</svg>
