<svg width="54" height="54" viewBox="0 0 54 54" fill="none" xmlns="http://www.w3.org/2000/svg">
<circle cx="27" cy="27" r="27" fill="#D9D9D9"/>
<path d="M38.6668 38.6358V29.9796C38.6668 25.7257 37.7515 22.4749 32.7875 22.4749C31.8565 22.4372 30.9328 22.6538 30.1156 23.1014C29.2984 23.549 28.6185 24.2108 28.1489 25.0156H28.0909V22.8556H23.3929V38.6358H28.2974V30.8058C28.2974 28.7376 28.6808 26.7558 31.2229 26.7558C33.7339 26.7558 33.7636 29.0899 33.7636 30.9219V38.6034H38.6681L38.6668 38.6358Z" fill="#001128"/>
<path d="M15.4158 22.8584H20.3203V38.6345H15.4158V22.8584Z" fill="#001128"/>
<path d="M17.8674 15C17.3021 14.9968 16.7486 15.1617 16.2772 15.4738C15.8059 15.7859 15.4379 16.231 15.2201 16.7526C15.0023 17.2743 14.9445 17.8489 15.054 18.4035C15.1635 18.9581 15.4354 19.4676 15.8351 19.8673C16.2348 20.267 16.7443 20.5389 17.2989 20.6484C17.8535 20.7579 18.4281 20.7001 18.9498 20.4823C19.4714 20.2645 19.9165 19.8965 20.2286 19.4252C20.5407 18.9538 20.7056 18.4003 20.7024 17.835C20.7024 17.0832 20.4037 16.3621 19.872 15.8304C19.3403 15.2987 18.6192 15 17.8674 15Z" fill="#001128"/>
</svg>
