<svg width="54" height="54" viewBox="0 0 54 54" fill="none" xmlns="http://www.w3.org/2000/svg">
<circle cx="27" cy="27" r="27" fill="#D9D9D9"/>
<path d="M33.1752 18C29.5971 18.0646 26.7257 20.1529 26.7257 22.7191C26.7247 23.0846 26.7817 23.448 26.8948 23.7956C21.9182 23.7385 17.1069 22.0011 13.2422 18.8652C12.6746 19.5276 12.3569 20.3677 12.3441 21.2399C12.4117 22.1072 12.725 22.9372 13.2472 23.6328C13.7695 24.3285 14.4791 24.8609 15.293 25.1679C14.2657 25.1504 13.2495 24.9517 12.2913 24.5809C12.2913 24.6009 12.2913 24.622 12.2913 24.642C12.2913 26.9287 14.5757 28.8352 17.6056 29.2695C16.6195 29.4583 15.6093 29.4856 14.6145 29.3505C15.4574 31.2288 17.9014 32.5917 20.7987 32.6293C18.2744 33.9866 15.4471 34.6817 12.5813 34.6496C12.0471 34.6496 11.5177 34.6285 11 34.585C14.194 36.008 17.6555 36.7312 21.152 36.7063C33.336 36.7063 39.998 29.5125 39.998 23.2732C39.998 23.0689 39.998 22.8623 39.9804 22.6604C41.2133 22.0408 42.331 21.2145 43.285 20.2175C42.0486 20.6058 40.773 20.8554 39.4815 20.9617C40.7438 20.4838 41.7826 19.5525 42.3951 18.3498C41.0484 18.9129 39.6341 19.2984 38.1878 19.4967C36.7778 18.4937 35.0825 17.971 33.3525 18.0058L33.1752 18Z" fill="#001128"/>
</svg>
