<svg width="54" height="54" viewBox="0 0 54 54" fill="none" xmlns="http://www.w3.org/2000/svg">
<circle cx="27" cy="27" r="27" fill="#D9D9D9"/>
<path d="M39.1797 20.8161C39.0325 20.2735 38.7458 19.7789 38.3482 19.3815C37.9505 18.984 37.4558 18.6976 36.9131 18.5506C34.9015 18 26.8548 18 26.8548 18C26.8548 18 18.8081 18 16.7954 18.5292C16.2533 18.684 15.7602 18.9757 15.3635 19.3762C14.9667 19.7768 14.6796 20.2726 14.5299 20.8161C14.1651 22.8562 13.988 24.9254 14.0007 26.9979C13.9872 29.071 14.1643 31.141 14.5299 33.1817C14.6768 33.7247 14.9633 34.2198 15.361 34.6176C15.7586 35.0155 16.2536 35.3023 16.7965 35.4494C18.8317 36 26.8548 36 26.8548 36C26.8548 36 34.9015 36 36.9131 35.4708C37.4556 35.3237 37.9501 35.0372 38.3476 34.6397C38.745 34.2423 39.0315 33.7478 39.1787 33.2053C39.5439 31.1645 39.7214 29.0946 39.7089 27.0214C39.7333 24.9411 39.556 22.8633 39.1797 20.8172V20.8161Z" fill="#001128"/>
<path d="M24.2933 30.854L30.985 26.9978L24.2933 23.1416V30.854Z" fill="white"/>
</svg>
